<svg width="141" height="141" viewBox="0 0 141 141" fill="none" xmlns="http://www.w3.org/2000/svg">
<g id="Group 455">
<path id="Rectangle 1085" d="M70.0645 140.129L35.0322 105.097C15.6844 85.7489 15.6844 54.3799 35.0322 35.0321C54.38 15.6843 85.7489 15.6843 105.097 35.0321C124.445 54.3799 124.445 85.7488 105.097 105.097L70.0645 140.129Z" fill="black"/>
<g id="Vector">
<path d="M49.0752 88.9887C49.0752 89.2963 49.3301 89.5517 49.6314 89.5517C49.9327 89.5517 50.1876 89.2937 50.1876 88.9887C50.1876 88.6836 49.9327 88.4256 49.6314 88.4256C49.3301 88.4256 49.0752 88.6732 49.0752 88.9887Z" fill="white"/>
<path d="M53.6715 89.5517L49.6314 82.2393L45.599 89.5517H46.5749L49.6314 84.0068L52.6956 89.5517H53.6715Z" fill="white"/>
<path d="M54.9383 82.633V89.5517H55.7881V86.4469L59.8951 89.5517H61.077L56.6172 86.0924L60.8813 82.633H59.7303L55.7881 85.7274V82.633H54.9383Z" fill="white"/>
<path d="M69.2164 89.5517L65.1737 82.2393L61.1439 89.5517H62.1198L65.1737 84.0068L68.2405 89.5517H69.2164Z" fill="white"/>
<path d="M64.6175 88.9887C64.6175 89.2963 64.8724 89.5517 65.1737 89.5517C65.475 89.5517 65.7299 89.2937 65.7299 88.9887C65.7299 88.6836 65.475 88.4256 65.1737 88.4256C64.8724 88.4256 64.6175 88.6732 64.6175 88.9887Z" fill="white"/>
<path d="M76.6888 86.0533C76.6888 84.1059 75.1567 82.6356 73.2333 82.6356H70.5502V89.5517H73.2822C75.1851 89.5517 76.6888 87.9902 76.6888 86.0533ZM71.3999 88.7201V83.4646H73.138C74.513 83.4646 75.8314 84.3744 75.8314 86.0142C75.8314 87.6539 74.6418 88.7227 73.1483 88.7227H71.4025L71.3999 88.7201Z" fill="white"/>
<path d="M83.8703 83.4046V82.633H77.7317V89.5517H83.8703V88.7697H78.5711V86.3192H83.2369V85.5892H78.5711V83.4151L83.8703 83.4046Z" fill="white"/>
<path d="M86.5431 84.6794L88.858 89.5517L91.1806 84.6794L92.262 89.5517H93.1015L91.4921 82.6434L88.858 87.9198L86.2212 82.6434L84.6119 89.5517H85.4616L86.5431 84.6794Z" fill="white"/>
<path d="M95.4035 85.1122H94.5537V89.5517H95.4035V85.1122Z" fill="white"/>
<path d="M95.4035 82.633H94.5537V84.6507H95.4035V82.633Z" fill="white"/>
<path d="M71.0961 92.9303C66.3839 92.8417 61.6718 92.8 56.9596 92.7348L46.3586 92.6305C45.3905 92.6201 44.4532 92.2317 43.7657 91.5617C43.073 90.8969 42.6507 89.9689 42.6044 89.0121C42.5889 88.7984 42.5967 88.4673 42.5967 88.1753L42.6533 78.3368C42.6636 73.5661 42.6997 68.7955 42.6868 64.0248L42.6816 54.1863C42.6791 54.022 42.6919 53.9334 42.6945 53.8083C42.6945 53.691 42.7177 53.5763 42.7331 53.4616C42.8747 52.5387 43.3846 51.6862 44.1184 51.1127C44.4815 50.826 44.9012 50.607 45.3441 50.4766C45.5656 50.4089 45.7947 50.3698 46.0265 50.3437L46.3818 50.3228H46.8247L50.3575 50.2968C52.7136 50.2863 55.0696 50.2629 57.4257 50.2342V48.4094C55.0696 48.3781 52.7136 48.3572 50.3575 48.3468L46.8247 48.3233H46.3818C46.2196 48.3233 46.029 48.3338 45.8565 48.3416C45.5012 48.3755 45.1484 48.4328 44.8034 48.5319C44.1133 48.7248 43.4618 49.0533 42.8928 49.4912C41.7495 50.3645 40.959 51.6941 40.7324 53.1305C40.7041 53.3104 40.6732 53.4902 40.6706 53.6701C40.6629 53.8422 40.6474 54.0507 40.6526 54.1863L40.6474 64.0248C40.6346 68.7955 40.668 73.5661 40.6809 78.3368L40.7375 88.1753C40.7427 88.4803 40.7324 88.7462 40.7607 89.1268C40.8483 90.5528 41.5023 91.9319 42.5349 92.8938C43.5597 93.8636 44.9682 94.4058 46.3586 94.3902L56.9596 94.2859C61.6718 94.2207 66.3839 94.179 71.0961 94.0904L85.2324 93.848C89.9446 93.7332 94.6567 93.6524 99.3689 93.5091C94.6567 93.3683 89.9446 93.2849 85.2324 93.1702L71.0961 92.9277V92.9303Z" fill="white"/>
<path d="M51.4853 75.4222V72.3904L54.6911 66.5822H52.7059L50.5481 70.4952L48.3774 66.5822H46.3947L49.6262 72.4295V75.4222H51.4853Z" fill="white"/>
<path d="M55.4765 75.4222L58.6334 69.687L61.8005 75.4222H63.7987L58.6334 66.0764L53.4809 75.4222H55.4765Z" fill="white"/>
<path d="M57.9227 74.7027C57.9227 75.0938 58.2471 75.4222 58.6334 75.4222C59.0196 75.4222 59.3441 75.0938 59.3441 74.7027C59.3441 74.3117 59.0196 73.9832 58.6334 73.9832C58.2471 73.9832 57.9227 74.2987 57.9227 74.7027Z" fill="white"/>
<path d="M71.1579 72.2392L64.7952 66.3032V75.4222H66.5178V70.0416L72.8934 75.8524V66.5822H71.1579V72.2392Z" fill="white"/>
<path d="M78.8672 74.7027C78.8672 75.0938 79.1917 75.4222 79.5779 75.4222C79.9641 75.4222 80.2886 75.0938 80.2886 74.7027C80.2886 74.3117 79.9641 73.9832 79.5779 73.9832C79.1917 73.9832 78.8672 74.2987 78.8672 74.7027Z" fill="white"/>
<path d="M74.428 75.4222H76.4236L79.5805 69.687L82.7477 75.4222H84.7432L79.5805 66.0764L74.428 75.4222Z" fill="white"/>
<path d="M94.6361 69.5749C94.6361 67.7814 93.3255 66.5822 91.6183 66.5822H86.5405V75.4222H88.2632V72.6433H91.0698L92.5556 75.4222H94.5512L92.9032 72.4295C94.013 71.9498 94.6361 70.9279 94.6361 69.5749ZM91.0441 71.1782H88.2632V68.0473H91.0081C91.9943 68.0473 92.8285 68.4253 92.8285 69.588C92.8285 71.1026 91.4561 71.1782 91.0441 71.1782Z" fill="white"/>
<path d="M99.7345 53.9647C99.7216 53.764 99.7268 53.5606 99.6933 53.3625C99.6006 52.5596 99.3328 51.7775 98.9183 51.0867C98.0968 49.7024 96.6858 48.6831 95.1048 48.3911C94.9065 48.3624 94.7108 48.3207 94.5125 48.3103L94.2138 48.2946C94.116 48.2894 94.0078 48.2842 93.9357 48.2868H87.0735L79.2329 48.2999L67.4706 48.3755L63.5489 48.4198V50.2446L67.4706 50.2889L79.2329 50.3645L87.0735 50.375H90.9952L92.9547 50.3802H93.9357C94.0259 50.3802 94.0825 50.3854 94.1469 50.388L94.3374 50.3984C94.4662 50.4036 94.5898 50.4349 94.716 50.4506C95.7176 50.6331 96.6163 51.29 97.139 52.1711C97.399 52.6117 97.5716 53.1044 97.6359 53.6154C97.6591 53.7431 97.6514 53.8735 97.6643 54.0012C97.6694 54.0585 97.6694 54.1498 97.6694 54.2306V54.4783L97.6746 55.4715L97.7029 63.4096L97.793 78.3785L86.1388 78.4932C81.9494 78.5558 77.76 78.5975 73.5732 78.6809C69.3837 78.7487 65.1943 78.8373 61.0075 78.9312L51.5832 79.1814L48.4418 79.2857L51.5832 79.39L61.0075 79.6402C65.1969 79.7341 69.3863 79.8227 73.5732 79.8905C77.7626 79.9713 81.952 80.013 86.1388 80.0782L98.7045 80.2033L99.6058 80.2112L99.7062 63.407L99.7345 55.4689V54.4757L99.7397 54.228C99.7397 54.1446 99.7397 54.069 99.7371 53.9621L99.7345 53.9647Z" fill="white"/>
<path d="M53.2312 53.7092H49.5516V62.5493H53.293C55.7263 62.5493 57.6472 60.5654 57.6472 58.0914C57.6472 55.6175 55.7134 53.7092 53.2312 53.7092ZM53.02 60.8444H51.2871V55.4141H52.9968C54.4929 55.4141 55.8524 56.3735 55.8524 58.0654C55.8524 59.7573 54.6293 60.8444 53.02 60.8444Z" fill="white"/>
<path d="M71.5441 58.0914C71.5441 55.6044 69.6103 53.7092 67.1281 53.7092H63.4485V62.5493H67.1899C69.6232 62.5493 71.5441 60.5654 71.5441 58.0914ZM65.1814 60.8444V55.4141H66.8912C68.3872 55.4141 69.7468 56.3735 69.7468 58.0654C69.7468 59.7573 68.5237 60.8444 66.9144 60.8444H65.1814Z" fill="white"/>
<path d="M71.333 62.5493H73.3285L76.4854 56.8141L79.6552 62.5493H81.6507L76.4854 53.2035L71.333 62.5493Z" fill="white"/>
<path d="M77.1961 61.8298C77.1961 61.4257 76.8716 61.1103 76.4854 61.1103C76.0992 61.1103 75.7747 61.4257 75.7747 61.8298C75.7747 62.2338 76.0992 62.5493 76.4854 62.5493C76.8716 62.5493 77.1961 62.2208 77.1961 61.8298Z" fill="white"/>
<path d="M91.5436 56.702C91.5436 54.9084 90.233 53.7092 88.5258 53.7092H83.448V62.5493H85.1707V59.7703H87.9773L89.4631 62.5493H91.4587L89.8107 59.5565C90.9205 59.0769 91.5436 58.0523 91.5436 56.702ZM87.9516 58.3052H85.1707V55.1743H87.9155C88.9017 55.1743 89.736 55.5523 89.736 56.715C89.736 58.2296 88.3636 58.3052 87.9516 58.3052Z" fill="white"/>
<path d="M61.2289 62.5467V53.7223H59.496V62.5467L60.4152 61.6186L61.2289 62.5467Z" fill="white"/>
<path d="M61.2289 48.3546H59.496V52.4058H61.2289V48.3546Z" fill="white"/>
</g>
</g>
</svg>
