<svg width="44" height="43" viewBox="0 0 44 43" fill="none" xmlns="http://www.w3.org/2000/svg">
<g id="huge-icon/education/outline/book-favourite">
<path id="Vector (Stroke)" fill-rule="evenodd" clip-rule="evenodd" d="M2.73975 8.84226C2.73975 6.1442 4.91937 3.73364 7.80755 4.06C11.8574 4.51764 17.4663 5.75876 21.5473 8.61839C21.8156 8.80644 22.1847 8.80644 22.4531 8.61839C26.534 5.75876 32.1429 4.51764 36.1928 4.06C39.081 3.73364 41.2606 6.1442 41.2606 8.84226V25.0834C41.2606 25.8255 40.659 26.4271 39.9168 26.4271C39.1747 26.4271 38.5731 25.8255 38.5731 25.0834V8.84226C38.5731 7.487 37.5405 6.61231 36.4945 6.73051C32.5952 7.17112 27.5243 8.3465 23.9953 10.8193C23.789 10.9639 23.5704 11.0835 23.3439 11.1782V37.6251C23.3439 38.3672 22.7423 38.9688 22.0002 38.9688C21.3046 38.9688 20.6043 38.7612 20.005 38.3412C16.4761 35.8684 11.4051 34.693 7.50579 34.2524C4.91497 33.9596 2.73975 31.79 2.73975 29.025V8.84226ZM20.6564 11.1782C20.4299 11.0835 20.2114 10.9639 20.005 10.8193C16.4761 8.3465 11.4051 7.17112 7.50579 6.73051C6.4598 6.61231 5.42725 7.487 5.42725 8.84226V29.025C5.42725 30.3133 6.4642 31.4301 7.80755 31.5819C11.57 32.007 16.678 33.1084 20.6564 35.5556V11.1782ZM8.13058 14.584C8.24416 13.8506 8.93076 13.3481 9.66415 13.4617C11.9983 13.8232 14.6269 14.4274 17.1098 15.3875C17.802 15.6552 18.1461 16.4333 17.8785 17.1255C17.6108 17.8177 16.8327 18.1618 16.1405 17.8941C13.8854 17.0221 11.4544 16.4585 9.25284 16.1175C8.51945 16.004 8.017 15.3174 8.13058 14.584ZM8.13058 21.7506C8.24416 21.0172 8.93076 20.5148 9.66415 20.6284C10.8462 20.8114 12.1002 21.0562 13.3706 21.3767C14.0901 21.5582 14.5263 22.2888 14.3448 23.0083C14.1632 23.7279 13.4327 24.1641 12.7131 23.9825C11.5335 23.6849 10.3623 23.456 9.25284 23.2842C8.51945 23.1706 8.017 22.484 8.13058 21.7506ZM30.5719 31.1571C30.0034 30.5886 29.0817 30.5886 28.5132 31.1571C27.9447 31.7256 27.9447 32.6473 28.5132 33.2158L31.2845 35.9871C31.6344 36.337 32.2016 36.337 32.5514 35.9871L35.3228 33.2158C35.8913 32.6473 35.8913 31.7256 35.3228 31.1571C34.7543 30.5886 33.8326 30.5886 33.2641 31.1571L32.8682 31.553C32.6162 31.805 32.2744 31.9466 31.918 31.9466C31.5616 31.9466 31.2198 31.805 30.9678 31.553L30.5719 31.1571ZM31.918 28.7909C30.3017 27.6574 28.0569 27.8127 26.6129 29.2567C24.9948 30.8748 24.9948 33.4981 26.6129 35.1161L29.3842 37.8875C30.7836 39.2869 33.0524 39.2869 34.4518 37.8875L37.2231 35.1161C38.8412 33.4981 38.8412 30.8748 37.2231 29.2567C35.7791 27.8127 33.5343 27.6574 31.918 28.7909Z" fill="#BBBBBB"/>
</g>
</svg>
