<svg width="44" height="43" viewBox="0 0 44 43" fill="none" xmlns="http://www.w3.org/2000/svg">
<g id="Huge-icon/time and date/outline/calendar-check">
<path id="Vector 1106 (Stroke)" fill-rule="evenodd" clip-rule="evenodd" d="M14.6666 2.23926C15.426 2.23926 16.0416 2.84088 16.0416 3.58301V8.95801C16.0416 9.70014 15.426 10.3018 14.6666 10.3018C13.9072 10.3018 13.2916 9.70014 13.2916 8.95801V3.58301C13.2916 2.84088 13.9072 2.23926 14.6666 2.23926Z" fill="#BBBBBB"/>
<path id="Vector 1107 (Stroke)" fill-rule="evenodd" clip-rule="evenodd" d="M29.3334 2.23926C30.0928 2.23926 30.7084 2.84088 30.7084 3.58301V8.95801C30.7084 9.70014 30.0928 10.3018 29.3334 10.3018C28.574 10.3018 27.9584 9.70014 27.9584 8.95801V3.58301C27.9584 2.84088 28.574 2.23926 29.3334 2.23926Z" fill="#BBBBBB"/>
<path id="Rectangle 421 (Stroke)" fill-rule="evenodd" clip-rule="evenodd" d="M4.125 13.4372C4.125 8.737 8.02385 4.92676 12.8333 4.92676H31.1667C35.9761 4.92676 39.875 8.737 39.875 13.4372V32.2497C39.875 36.9498 35.9761 40.7601 31.1667 40.7601H12.8333C8.02385 40.7601 4.125 36.9498 4.125 32.2497V13.4372ZM12.8333 7.61426C9.54264 7.61426 6.875 10.2213 6.875 13.4372V32.2497C6.875 35.4656 9.54264 38.0726 12.8333 38.0726H31.1667C34.4574 38.0726 37.125 35.4656 37.125 32.2497V13.4372C37.125 10.2213 34.4574 7.61426 31.1667 7.61426H12.8333Z" fill="#BBBBBB"/>
<path id="Vector 1089 (Stroke)" fill-rule="evenodd" clip-rule="evenodd" d="M28.4055 22.2807C28.977 22.7694 29.0349 23.6184 28.5348 24.1769L23.2733 30.0534C22.1427 31.3161 20.1953 31.4852 18.8546 30.437L15.6411 27.9246C15.0481 27.461 14.952 26.6154 15.4264 26.0359C15.9007 25.4564 16.766 25.3624 17.359 25.8261L20.5725 28.3384C20.764 28.4882 21.0422 28.464 21.2038 28.2836L26.4653 22.4071C26.9653 21.8486 27.834 21.792 28.4055 22.2807Z" fill="#BBBBBB"/>
<path id="Vector 2526 (Stroke)" fill-rule="evenodd" clip-rule="evenodd" d="M4.125 16.125C4.125 15.3829 4.74061 14.7812 5.5 14.7812H38.5C39.2594 14.7812 39.875 15.3829 39.875 16.125C39.875 16.8671 39.2594 17.4688 38.5 17.4688H5.5C4.74061 17.4688 4.125 16.8671 4.125 16.125Z" fill="#BBBBBB"/>
</g>
</svg>
