<svg width="45" height="43" viewBox="0 0 45 43" fill="none" xmlns="http://www.w3.org/2000/svg">
<g id="huge-icon/education/outline/diploma">
<path id="Vector (Stroke)" fill-rule="evenodd" clip-rule="evenodd" d="M15.1668 4.92676C11.8761 4.92676 9.2085 7.53377 9.2085 10.7497V25.083C9.2085 27.2366 10.4041 29.1189 12.1887 30.1277C12.846 30.4993 13.0706 31.3214 12.6904 31.9638C12.3101 32.6061 11.469 32.8257 10.8117 32.4541C8.21232 30.9846 6.4585 28.2348 6.4585 25.083V10.7497C6.4585 6.0495 10.3574 2.23926 15.1668 2.23926H29.8335C34.643 2.23926 38.5418 6.0495 38.5418 10.7497V25.083C38.5418 28.2348 36.788 30.9846 34.1887 32.4541C33.5313 32.8257 32.6902 32.6061 32.31 31.9638C31.9297 31.3214 32.1543 30.4993 32.8117 30.1277C34.5962 29.1189 35.7918 27.2366 35.7918 25.083V10.7497C35.7918 7.53377 33.1242 4.92676 29.8335 4.92676H15.1668ZM13.7918 10.7497C13.7918 10.0075 14.4074 9.40592 15.1668 9.40592H29.8335C30.5929 9.40592 31.2085 10.0075 31.2085 10.7497C31.2085 11.4918 30.5929 12.0934 29.8335 12.0934H15.1668C14.4074 12.0934 13.7918 11.4918 13.7918 10.7497ZM13.7918 17.9163C13.7918 17.1742 14.4074 16.5726 15.1668 16.5726H22.5002C23.2596 16.5726 23.8752 17.1742 23.8752 17.9163C23.8752 18.6585 23.2596 19.2601 22.5002 19.2601H15.1668C14.4074 19.2601 13.7918 18.6585 13.7918 17.9163ZM22.5002 24.6351C20.222 24.6351 18.3752 26.4399 18.3752 28.6663C18.3752 30.8927 20.222 32.6976 22.5002 32.6976C24.7783 32.6976 26.6252 30.8927 26.6252 28.6663C26.6252 26.4399 24.7783 24.6351 22.5002 24.6351ZM15.6252 28.6663C15.6252 24.9557 18.7032 21.9476 22.5002 21.9476C26.2971 21.9476 29.3752 24.9557 29.3752 28.6663C29.3752 29.888 29.0415 31.0334 28.4585 32.0205V39.4163C28.4585 39.8622 28.2322 40.2791 27.8544 40.5291C27.4766 40.779 26.9965 40.8296 26.5728 40.664L22.5002 39.0719L18.4275 40.664C18.0039 40.8296 17.5238 40.779 17.146 40.5291C16.7682 40.2791 16.5418 39.8622 16.5418 39.4163V32.0205C15.9588 31.0334 15.6252 29.888 15.6252 28.6663ZM19.2918 34.6102V37.4316L21.9895 36.377C22.3173 36.2489 22.683 36.2489 23.0108 36.377L25.7085 37.4316V34.6102C24.7507 35.1049 23.6589 35.3851 22.5002 35.3851C21.3414 35.3851 20.2496 35.1049 19.2918 34.6102Z" fill="#BBBBBB"/>
</g>
</svg>
