<svg width="45" height="43" viewBox="0 0 45 43" fill="none" xmlns="http://www.w3.org/2000/svg">
<g id="Huge-icon/multimedia and audio/outline/playlist 01">
<path id="Vector (Stroke)" fill-rule="evenodd" clip-rule="evenodd" d="M4.625 10.7497C4.625 6.0495 8.52385 2.23926 13.3333 2.23926H31.6667C36.4761 2.23926 40.375 6.0495 40.375 10.7497V25.083C40.375 29.7832 36.4761 33.5934 31.6667 33.5934H9.66667C8.40101 33.5934 7.375 34.5961 7.375 35.833C7.375 37.0699 8.40101 38.0726 9.66667 38.0726H39C39.7594 38.0726 40.375 38.6742 40.375 39.4163C40.375 40.1585 39.7594 40.7601 39 40.7601H9.66667C6.88223 40.7601 4.625 38.5542 4.625 35.833V10.7497ZM7.375 31.4432C8.06256 31.0997 8.84146 30.9059 9.66667 30.9059H31.6667C34.9574 30.9059 37.625 28.2989 37.625 25.083V10.7497C37.625 7.53377 34.9574 4.92676 31.6667 4.92676H13.3333C10.0426 4.92676 7.375 7.53377 7.375 10.7497V31.4432Z" fill="#BBBBBB"/>
<path id="Vector (Stroke)_2" fill-rule="evenodd" clip-rule="evenodd" d="M21.5948 11.4933C18.852 10.1531 15.625 12.1022 15.625 15.099V20.7354C15.625 23.7321 18.852 25.6812 21.5948 24.341L27.3622 21.5228C30.4026 20.0372 30.4026 15.7971 27.3622 14.3115L21.5948 11.4933ZM20.3649 13.8971C19.4507 13.4503 18.375 14.1 18.375 15.099V20.7354C18.375 21.7343 19.4507 22.384 20.3649 21.9372L26.1324 19.119C27.1458 18.6238 27.1458 17.2105 26.1324 16.7153L20.3649 13.8971Z" fill="#BBBBBB"/>
</g>
</svg>
