<svg width="45" height="43" viewBox="0 0 45 43" fill="none" xmlns="http://www.w3.org/2000/svg">
<g id="Huge-icon/multimedia and audio/outline/camera video">
<path id="Vector (Stroke)" fill-rule="evenodd" clip-rule="evenodd" d="M2.7915 14.3337C2.7915 9.63349 6.69036 5.82324 11.4998 5.82324H24.3332C28.813 5.82324 32.5028 9.12912 32.9875 13.3808L33.4884 12.8586C36.6143 9.60008 42.2082 11.7619 42.2082 16.2285V26.7722C42.2082 31.2388 36.6143 33.4006 33.4884 30.142L32.9875 29.6199C32.5028 33.8715 28.813 37.1774 24.3332 37.1774H11.4998C6.69036 37.1774 2.7915 33.3672 2.7915 28.667V14.3337ZM30.2915 14.3337C30.2915 11.1178 27.6239 8.51074 24.3332 8.51074H11.4998C8.20914 8.51074 5.5415 11.1178 5.5415 14.3337V28.667C5.5415 31.8829 8.20914 34.4899 11.4998 34.4899H24.3332C27.6239 34.4899 30.2915 31.8829 30.2915 28.667V14.3337ZM33.0415 25.7467L35.4947 28.3039C36.9155 29.7851 39.4582 28.8025 39.4582 26.7722V16.2285C39.4582 14.1982 36.9155 13.2156 35.4947 14.6967L33.0415 17.2539V25.7467ZM20.6665 15.6774C19.4009 15.6774 18.3748 16.6801 18.3748 17.917C18.3748 19.1539 19.4009 20.1566 20.6665 20.1566C21.9322 20.1566 22.9582 19.1539 22.9582 17.917C22.9582 16.6801 21.9322 15.6774 20.6665 15.6774ZM15.6248 17.917C15.6248 15.1958 17.8821 12.9899 20.6665 12.9899C23.4509 12.9899 25.7082 15.1958 25.7082 17.917C25.7082 20.6381 23.4509 22.8441 20.6665 22.8441C17.8821 22.8441 15.6248 20.6381 15.6248 17.917Z" fill="#BBBBBB"/>
</g>
</svg>
