<svg width="16" height="19" viewBox="0 0 16 19" fill="none" xmlns="http://www.w3.org/2000/svg">
<g id="lock">
<path id="Subtract" fill-rule="evenodd" clip-rule="evenodd" d="M4.75 5C4.75 3.20507 6.20507 1.75 8 1.75C9.79493 1.75 11.25 3.20507 11.25 5H12C12.2563 5 12.5071 5.02411 12.75 5.0702V5C12.75 2.37665 10.6234 0.25 8 0.25C5.37665 0.25 3.25 2.37665 3.25 5V5.0702C3.49294 5.02411 3.74365 5 4 5H4.75Z" fill="black"/>
<path id="Rectangle 324" opacity="0.4" d="M0 9C0 6.79086 1.79086 5 4 5H12C14.2091 5 16 6.79086 16 9V15C16 17.2091 14.2091 19 12 19H4C1.79086 19 0 17.2091 0 15V9Z" fill="black"/>
<path id="Ellipse 332" d="M10 12C10 13.1046 9.10457 14 8 14C6.89543 14 6 13.1046 6 12C6 10.8954 6.89543 10 8 10C9.10457 10 10 10.8954 10 12Z" fill="black"/>
</g>
</svg>
