<svg width="16" height="19" viewBox="0 0 16 19" fill="none" xmlns="http://www.w3.org/2000/svg">
<g id="lock">
<path id="Subtract" fill-rule="evenodd" clip-rule="evenodd" d="M4.75 4.99707C4.75 3.20214 6.20507 1.74707 8 1.74707C9.79493 1.74707 11.25 3.20214 11.25 4.99707H12C12.2563 4.99707 12.5071 5.02118 12.75 5.06727V4.99707C12.75 2.37372 10.6234 0.24707 8 0.24707C5.37665 0.24707 3.25 2.37372 3.25 4.99707V5.06727C3.49294 5.02118 3.74365 4.99707 4 4.99707H4.75Z" fill="white"/>
<path id="Rectangle 324" opacity="0.4" d="M0 8.99707C0 6.78793 1.79086 4.99707 4 4.99707H12C14.2091 4.99707 16 6.78793 16 8.99707V14.9971C16 17.2062 14.2091 18.9971 12 18.9971H4C1.79086 18.9971 0 17.2062 0 14.9971V8.99707Z" fill="white"/>
<path id="Ellipse 332" d="M10 11.9971C10 13.1016 9.10457 13.9971 8 13.9971C6.89543 13.9971 6 13.1016 6 11.9971C6 10.8925 6.89543 9.99707 8 9.99707C9.10457 9.99707 10 10.8925 10 11.9971Z" fill="white"/>
</g>
</svg>
