<svg width="94" height="73" viewBox="0 0 94 73" fill="none" xmlns="http://www.w3.org/2000/svg">
<g id="Vector">
<path d="M13.4132 64.4483C13.4132 64.9354 13.8187 65.3399 14.2979 65.3399C14.7771 65.3399 15.1825 64.9313 15.1825 64.4483C15.1825 63.9654 14.7771 63.5567 14.2979 63.5567C13.8187 63.5567 13.4132 63.9488 13.4132 64.4483Z" fill="black"/>
<path d="M20.724 65.3399L14.2979 53.7615L7.88404 65.3399H9.43631L14.2979 56.5601L19.1717 65.3399H20.724Z" fill="black"/>
<path d="M22.7391 54.3848V65.3399H24.0907V60.4237L30.6233 65.3399H32.5032L25.4095 59.8623L32.1919 54.3848H30.3611L24.0907 59.2844V54.3848H22.7391Z" fill="black"/>
<path d="M45.4496 65.3399L39.0194 53.7615L32.6097 65.3399H34.1619L39.0194 56.5601L43.8974 65.3399H45.4496Z" fill="black"/>
<path d="M38.1348 64.4483C38.1348 64.9354 38.5402 65.3399 39.0194 65.3399C39.4986 65.3399 39.9041 64.9313 39.9041 64.4483C39.9041 63.9654 39.4986 63.5567 39.0194 63.5567C38.5402 63.5567 38.1348 63.9488 38.1348 64.4483Z" fill="black"/>
<path d="M57.3353 59.8004C57.3353 56.717 54.8984 54.3889 51.8389 54.3889H47.5712V65.3399H51.9167C54.9434 65.3399 57.3353 62.8674 57.3353 59.8004ZM48.9228 64.0231V55.7015H51.6874C53.8745 55.7015 55.9714 57.1421 55.9714 59.7385C55.9714 62.3349 54.0792 64.0273 51.7037 64.0273H48.9269L48.9228 64.0231Z" fill="black"/>
<path d="M68.7582 55.6066V54.3848H58.9941V65.3399H68.7582V64.1016H60.3293V60.2215H67.7506V59.0657H60.3293V55.6231L68.7582 55.6066Z" fill="black"/>
<path d="M73.0095 57.6251L76.6915 65.3399L80.3858 57.6251L82.106 65.3399H83.4412L80.8814 54.4013L76.6915 62.7559L72.4975 54.4013L69.9377 65.3399H71.2893L73.0095 57.6251Z" fill="black"/>
<path d="M87.1027 58.3103H85.7512V65.3399H87.1027V58.3103Z" fill="black"/>
<path d="M87.1027 54.3848H85.7512V57.5797H87.1027V54.3848Z" fill="black"/>
<path d="M48.4395 70.6895C40.9444 70.5492 33.4493 70.4831 25.9542 70.38L9.09225 70.2148C7.55227 70.1983 6.06144 69.5833 4.9679 68.5224C3.86616 67.4699 3.19446 66.0004 3.12074 64.4855C3.09617 64.147 3.10846 63.6228 3.10846 63.1604L3.19856 47.5822C3.21494 40.0283 3.27228 32.4744 3.2518 24.9206L3.24361 9.34229C3.23952 9.08224 3.26 8.9419 3.26409 8.74376C3.26409 8.55801 3.30095 8.37639 3.32553 8.19477C3.55079 6.73353 4.36173 5.38374 5.529 4.47563C6.10649 4.02157 6.77409 3.67483 7.47855 3.46844C7.83078 3.36112 8.19529 3.2992 8.5639 3.25793L9.12911 3.2249H9.83357L15.4528 3.18363C19.2004 3.16711 22.9479 3.12996 26.6955 3.08456V0.195104C22.9479 0.145571 19.2004 0.112548 15.4528 0.0960371L9.83357 0.058887H9.12911C8.87108 0.058887 8.568 0.0753982 8.29359 0.0877816C7.72838 0.141443 7.16728 0.232254 6.61845 0.38911C5.52081 0.694567 4.4846 1.21467 3.57946 1.90814C1.76098 3.29095 0.503601 5.39612 0.143181 7.67054C0.0981289 7.95535 0.0489807 8.24017 0.044885 8.52499C0.032598 8.79742 0.00802388 9.12765 0.0162152 9.34229L0.00802388 24.9206C-0.0124545 32.4744 0.0407893 40.0283 0.0612678 47.5822L0.151373 63.1604C0.159564 63.6434 0.143181 64.0644 0.188234 64.6671C0.327487 66.925 1.36779 69.1086 3.01016 70.6318C4.64024 72.1673 6.88058 73.0259 9.09225 73.0011L25.9542 72.836C33.4493 72.7328 40.9444 72.6668 48.4395 72.5264L70.9248 72.1425C78.4199 71.9609 85.915 71.8329 93.4101 71.6059C85.915 71.383 78.4199 71.2509 70.9248 71.0693L48.4395 70.6854V70.6895Z" fill="black"/>
<path d="M17.2468 42.9673V38.1667L22.3459 28.9699H19.1881L15.7559 35.1658L12.3033 28.9699H9.14961L14.2897 38.2286V42.9673H17.2468Z" fill="black"/>
<path d="M23.5951 42.9673L28.6164 33.8861L33.6541 42.9673H36.8323L28.6164 28.1691L20.4209 42.9673H23.5951Z" fill="black"/>
<path d="M27.486 41.828C27.486 42.4472 28.002 42.9673 28.6164 42.9673C29.2307 42.9673 29.7468 42.4472 29.7468 41.828C29.7468 41.2088 29.2307 40.6887 28.6164 40.6887C28.002 40.6887 27.486 41.1882 27.486 41.828Z" fill="black"/>
<path d="M48.5378 37.9272L38.4174 28.5283V42.9673H41.1574V34.4475L51.2983 43.6484V28.9699H48.5378V37.9272Z" fill="black"/>
<path d="M60.8003 41.828C60.8003 42.4472 61.3163 42.9673 61.9307 42.9673C62.545 42.9673 63.0611 42.4472 63.0611 41.828C63.0611 41.2088 62.545 40.6887 61.9307 40.6887C61.3163 40.6887 60.8003 41.1882 60.8003 41.828Z" fill="black"/>
<path d="M53.7393 42.9673H56.9135L61.9348 33.8861L66.9725 42.9673H70.1466L61.9348 28.1691L53.7393 42.9673Z" fill="black"/>
<path d="M85.8822 33.7086C85.8822 30.8687 83.7975 28.9699 81.0821 28.9699H73.0054V42.9673H75.7454V38.5671H80.2097L82.5729 42.9673H85.7471L83.1258 38.2286C84.8911 37.4691 85.8822 35.851 85.8822 33.7086ZM80.1687 36.2472H75.7454V31.2898H80.1114C81.6801 31.2898 83.007 31.8883 83.007 33.7293C83.007 36.1275 80.8241 36.2472 80.1687 36.2472Z" fill="black"/>
<path d="M93.9917 8.99143C93.9712 8.67359 93.9794 8.35162 93.9261 8.03791C93.7787 6.76655 93.3527 5.52821 92.6933 4.43435C91.3868 2.24249 89.1424 0.628522 86.6276 0.16621C86.3123 0.120804 86.001 0.0547592 85.6856 0.0382481L85.2105 0.0134813C85.0549 0.00522573 84.8829 -0.00302986 84.7682 0.00109794H73.8532L61.3818 0.0217369L42.6728 0.141443L36.435 0.211615V3.10107L42.6728 3.17124L61.3818 3.29095L73.8532 3.30746H80.0909L83.2077 3.31571H84.7682C84.9115 3.31571 85.0016 3.32397 85.104 3.3281L85.4071 3.34461C85.6119 3.35286 85.8085 3.4024 86.0092 3.42717C87.6024 3.71611 89.0318 4.75631 89.8632 6.15151C90.2769 6.8491 90.5513 7.62926 90.6537 8.4383C90.6905 8.64057 90.6783 8.84696 90.6987 9.04922C90.7069 9.14003 90.7069 9.2845 90.7069 9.41246V9.8046L90.7151 11.3773L90.7602 23.9464L90.9035 47.6482L72.3665 47.8298C65.7028 47.9289 59.0391 47.9949 52.3795 48.127C45.7159 48.2343 39.0522 48.3747 32.3926 48.5233L17.4024 48.9196L12.4057 49.0847L17.4024 49.2498L32.3926 49.646C39.0563 49.7946 45.72 49.935 52.3795 50.0423C59.0432 50.1703 65.7069 50.2363 72.3665 50.3395L92.3534 50.5377L93.7869 50.55L93.9466 23.9423L93.9917 11.3732V9.80048L93.9999 9.40833C93.9999 9.27625 93.9999 9.15654 93.9958 8.9873L93.9917 8.99143Z" fill="black"/>
<path d="M20.0236 8.5869H14.1709V22.5842H20.1219C23.9924 22.5842 27.0477 19.443 27.0477 15.5257C27.0477 11.6084 23.9719 8.5869 20.0236 8.5869ZM19.6878 19.8847H16.9314V11.2865H19.6509C22.0305 11.2865 24.193 12.8055 24.193 15.4844C24.193 18.1634 22.2476 19.8847 19.6878 19.8847Z" fill="black"/>
<path d="M49.1521 15.5257C49.1521 11.5878 46.0763 8.5869 42.128 8.5869H36.2753V22.5842H42.2263C46.0968 22.5842 49.1521 19.443 49.1521 15.5257ZM39.0317 19.8847V11.2865H41.7512C44.1308 11.2865 46.2934 12.8055 46.2934 15.4844C46.2934 18.1634 44.3479 19.8847 41.7881 19.8847H39.0317Z" fill="black"/>
<path d="M48.8163 22.5842H51.9904L57.0117 13.5031L62.0535 22.5842H65.2277L57.0117 7.78611L48.8163 22.5842Z" fill="black"/>
<path d="M58.1422 21.445C58.1422 20.8052 57.6261 20.3057 57.0117 20.3057C56.3974 20.3057 55.8813 20.8052 55.8813 21.445C55.8813 22.0848 56.3974 22.5842 57.0117 22.5842C57.6261 22.5842 58.1422 22.0641 58.1422 21.445Z" fill="black"/>
<path d="M80.9633 13.3256C80.9633 10.4857 78.8786 8.5869 76.1632 8.5869H68.0865V22.5842H70.8265V18.184H75.2908L77.654 22.5842H80.8281L78.2069 17.8455C79.9721 17.086 80.9633 15.4638 80.9633 13.3256ZM75.2498 15.8642H70.8265V10.9067H75.1925C76.7611 10.9067 78.0881 11.5053 78.0881 13.3462C78.0881 15.7445 75.9051 15.8642 75.2498 15.8642Z" fill="black"/>
<path d="M32.7448 22.5801V8.60754H29.9884V22.5801L31.4506 21.1106L32.7448 22.5801Z" fill="black"/>
<path d="M32.7448 0.108421H29.9884V6.52301H32.7448V0.108421Z" fill="black"/>
</g>
</svg>
