<svg width="94" height="73" viewBox="0 0 94 73" fill="none" xmlns="http://www.w3.org/2000/svg">
<path d="M13.4133 64.4512C13.4133 64.9383 13.8188 65.3428 14.298 65.3428C14.7772 65.3428 15.1827 64.9342 15.1827 64.4512C15.1827 63.9683 14.7772 63.5596 14.298 63.5596C13.8188 63.5596 13.4133 63.9518 13.4133 64.4512Z" fill="white"/>
<path d="M20.7241 65.3428L14.298 53.7644L7.88417 65.3428H9.43643L14.298 56.563L19.1719 65.3428H20.7241Z" fill="white"/>
<path d="M22.7392 54.3877V65.3428H24.0908V60.4266L30.6234 65.3428H32.5033L25.4096 59.8653L32.192 54.3877H30.3613L24.0908 59.2874V54.3877H22.7392Z" fill="white"/>
<path d="M45.4498 65.3428L39.0195 53.7644L32.6098 65.3428H34.1621L39.0195 56.563L43.8975 65.3428H45.4498Z" fill="white"/>
<path d="M38.1349 64.4512C38.1349 64.9383 38.5403 65.3428 39.0195 65.3428C39.4987 65.3428 39.9042 64.9342 39.9042 64.4512C39.9042 63.9683 39.4987 63.5596 39.0195 63.5596C38.5403 63.5596 38.1349 63.9518 38.1349 64.4512Z" fill="white"/>
<path d="M57.3354 59.8033C57.3354 56.7199 54.8985 54.3918 51.839 54.3918H47.5713V65.3428H51.9168C54.9436 65.3428 57.3354 62.8703 57.3354 59.8033ZM48.9229 64.0261V55.7044H51.6875C53.8746 55.7044 55.9716 57.145 55.9716 59.7414C55.9716 62.3378 54.0794 64.0302 51.7039 64.0302H48.927L48.9229 64.0261Z" fill="white"/>
<path d="M68.7583 55.6095V54.3877H58.9942V65.3428H68.7583V64.1045H60.3294V60.2244H67.7508V59.0686H60.3294V55.626L68.7583 55.6095Z" fill="white"/>
<path d="M73.0096 57.628L76.6916 65.3428L80.3859 57.628L82.1061 65.3428H83.4413L80.8815 54.4042L76.6916 62.7588L72.4976 54.4042L69.9378 65.3428H71.2894L73.0096 57.628Z" fill="white"/>
<path d="M87.1029 58.3132H85.7513V65.3428H87.1029V58.3132Z" fill="white"/>
<path d="M87.1029 54.3877H85.7513V57.5826H87.1029V54.3877Z" fill="white"/>
<path d="M48.4396 70.6925C40.9445 70.5521 33.4494 70.4861 25.9543 70.3829L9.09237 70.2178C7.55239 70.2013 6.06156 69.5862 4.96802 68.5254C3.86628 67.4728 3.19459 66.0033 3.12086 64.4884C3.09629 64.1499 3.10858 63.6257 3.10858 63.1634L3.19868 47.5851C3.21507 40.0312 3.2724 32.4774 3.25193 24.9235L3.24373 9.34522C3.23964 9.08517 3.26012 8.94483 3.26421 8.74669C3.26421 8.56094 3.30107 8.37932 3.32565 8.1977C3.55091 6.73646 4.36186 5.38667 5.52913 4.47855C6.10662 4.0245 6.77421 3.67776 7.47867 3.47137C7.8309 3.36405 8.19541 3.30213 8.56403 3.26086L9.12923 3.22783H9.83369L15.453 3.18656C19.2005 3.17004 22.9481 3.13289 26.6956 3.08749V0.198034C22.9481 0.1485 19.2005 0.115478 15.453 0.0989668L9.83369 0.0618167H9.12923C8.8712 0.0618167 8.56812 0.0783279 8.29371 0.0907113C7.72851 0.144373 7.1674 0.235184 6.61858 0.39204C5.52093 0.697497 4.48473 1.2176 3.57958 1.91107C1.7611 3.29388 0.503724 5.39905 0.143303 7.67347C0.098251 7.95828 0.0491028 8.2431 0.0450071 8.52792C0.03272 8.80035 0.00814595 9.13058 0.0163373 9.34522L0.00814595 24.9235C-0.0123325 32.4774 0.0409114 40.0312 0.0613898 47.5851L0.151495 63.1634C0.159686 63.6463 0.143303 64.0674 0.188356 64.67C0.327609 66.9279 1.36791 69.1115 3.01028 70.6347C4.64036 72.1702 6.8807 73.0288 9.09237 73.004L25.9543 72.8389C33.4494 72.7357 40.9445 72.6697 48.4396 72.5293L70.9249 72.1454C78.42 71.9638 85.9151 71.8359 93.4102 71.6088C85.9151 71.3859 78.42 71.2538 70.9249 71.0722L48.4396 70.6883V70.6925Z" fill="white"/>
<path d="M17.2469 42.9702V38.1696L22.346 28.9729H19.1882L15.7561 35.1687L12.3034 28.9729H9.14973L14.2898 38.2315V42.9702H17.2469Z" fill="white"/>
<path d="M23.5952 42.9702L28.6165 33.8891L33.6542 42.9702H36.8324L28.6165 28.1721L20.421 42.9702H23.5952Z" fill="white"/>
<path d="M27.4861 41.8309C27.4861 42.4501 28.0022 42.9702 28.6165 42.9702C29.2309 42.9702 29.7469 42.4501 29.7469 41.8309C29.7469 41.2118 29.2309 40.6917 28.6165 40.6917C28.0022 40.6917 27.4861 41.1911 27.4861 41.8309Z" fill="white"/>
<path d="M48.5379 37.9302L38.4175 28.5312V42.9702H41.1575V34.4505L51.2984 43.6513V28.9729H48.5379V37.9302Z" fill="white"/>
<path d="M60.8004 41.8309C60.8004 42.4501 61.3164 42.9702 61.9308 42.9702C62.5451 42.9702 63.0612 42.4501 63.0612 41.8309C63.0612 41.2118 62.5451 40.6917 61.9308 40.6917C61.3164 40.6917 60.8004 41.1911 60.8004 41.8309Z" fill="white"/>
<path d="M53.7394 42.9702H56.9136L61.9349 33.8891L66.9726 42.9702H70.1467L61.9349 28.1721L53.7394 42.9702Z" fill="white"/>
<path d="M85.8823 33.7116C85.8823 30.8717 83.7976 28.9729 81.0822 28.9729H73.0055V42.9702H75.7455V38.57H80.2098L82.573 42.9702H85.7472L83.1259 38.2315C84.8912 37.472 85.8823 35.8539 85.8823 33.7116ZM80.1689 36.2502H75.7455V31.2927H80.1115C81.6802 31.2927 83.0072 31.8912 83.0072 33.7322C83.0072 36.1305 80.8242 36.2502 80.1689 36.2502Z" fill="white"/>
<path d="M93.9918 8.99436C93.9713 8.67652 93.9795 8.35455 93.9263 8.04084C93.7788 6.76948 93.3529 5.53114 92.6935 4.43728C91.3869 2.24542 89.1425 0.631452 86.6278 0.169139C86.3124 0.123734 86.0011 0.0576889 85.6858 0.0411777L85.2107 0.016411C85.055 0.00815541 84.883 -0.000100168 84.7683 0.00402762H73.8533L61.382 0.0246666L42.6729 0.144373L36.4352 0.214545V3.104L42.6729 3.17417L61.382 3.29388L73.8533 3.31039H80.091L83.2079 3.31864H84.7683C84.9117 3.31864 85.0018 3.3269 85.1042 3.33103L85.4072 3.34754C85.612 3.35579 85.8086 3.40533 86.0093 3.43009C87.6025 3.71904 89.0319 4.75924 89.8633 6.15444C90.277 6.85203 90.5514 7.63219 90.6538 8.44123C90.6907 8.6435 90.6784 8.84988 90.6989 9.05215C90.7071 9.14296 90.7071 9.28743 90.7071 9.41539V9.80753L90.7153 11.3802L90.7603 23.9493L90.9037 47.6511L72.3666 47.8327C65.7029 47.9318 59.0392 47.9979 52.3797 48.1299C45.716 48.2373 39.0523 48.3776 32.3927 48.5262L17.4025 48.9225L12.4058 49.0876L17.4025 49.2527L32.3927 49.649C39.0564 49.7976 45.7201 49.9379 52.3797 50.0452C59.0433 50.1732 65.707 50.2393 72.3666 50.3424L92.3535 50.5406L93.787 50.553L93.9467 23.9452L93.9918 11.3761V9.8034L94 9.41126C94 9.27917 94 9.15947 93.9959 8.99023L93.9918 8.99436Z" fill="white"/>
<path d="M20.0238 8.58983H14.171V22.5872H20.1221C23.9925 22.5872 27.0479 19.4459 27.0479 15.5287C27.0479 11.6114 23.972 8.58983 20.0238 8.58983ZM19.6879 19.8876H16.9315V11.2894H19.6511C22.0307 11.2894 24.1932 12.8084 24.1932 15.4874C24.1932 18.1663 22.2477 19.8876 19.6879 19.8876Z" fill="white"/>
<path d="M49.1523 15.5287C49.1523 11.5907 46.0764 8.58983 42.1282 8.58983H36.2754V22.5872H42.2265C46.0969 22.5872 49.1523 19.4459 49.1523 15.5287ZM39.0318 19.8876V11.2894H41.7514C44.131 11.2894 46.2935 12.8084 46.2935 15.4874C46.2935 18.1663 44.348 19.8876 41.7882 19.8876H39.0318Z" fill="white"/>
<path d="M48.8164 22.5872H51.9906L57.0119 13.506L62.0537 22.5872H65.2278L57.0119 7.78904L48.8164 22.5872Z" fill="white"/>
<path d="M58.1423 21.4479C58.1423 20.8081 57.6262 20.3086 57.0119 20.3086C56.3975 20.3086 55.8815 20.8081 55.8815 21.4479C55.8815 22.0877 56.3975 22.5872 57.0119 22.5872C57.6262 22.5872 58.1423 22.0671 58.1423 21.4479Z" fill="white"/>
<path d="M80.9634 13.3285C80.9634 10.4886 78.8787 8.58983 76.1633 8.58983H68.0866V22.5872H70.8266V18.187H75.2909L77.6541 22.5872H80.8283L78.207 17.8485C79.9723 17.089 80.9634 15.4667 80.9634 13.3285ZM75.2499 15.8671H70.8266V10.9097H75.1926C76.7613 10.9097 78.0883 11.5082 78.0883 13.3492C78.0883 15.7474 75.9053 15.8671 75.2499 15.8671Z" fill="white"/>
<path d="M32.745 22.583V8.61047H29.9886V22.583L31.4507 21.1136L32.745 22.583Z" fill="white"/>
<path d="M32.745 0.11135H29.9886V6.52594H32.745V0.11135Z" fill="white"/>
</svg>
