<svg width="47" height="32" viewBox="0 0 47 32" fill="none" xmlns="http://www.w3.org/2000/svg">
<path fill-rule="evenodd" clip-rule="evenodd" d="M46.5318 0H0.137573V31.9712H46.5318V21.4207" fill="url(#paint0_radial_104_8279)"/>
<path d="M4.32595 11.2959L3.46681 9.16449L2.60764 11.2959H4.32595ZM23.7643 10.4433C23.5495 10.5499 23.3347 10.5499 23.1199 10.5499H21.6164V9.37763H23.2273C23.4421 9.37763 23.6569 9.37763 23.8717 9.4842C24.0864 9.59078 24.1938 9.69735 24.1938 9.91049C24.0864 10.1236 23.979 10.3368 23.7643 10.4433ZM34.9332 11.2959L34.0741 9.16449L33.2149 11.2959H34.9332ZM14.0988 13.6405H12.8101V9.37763L10.9844 13.6405H9.80305L7.97734 9.37763V13.6405H5.29249L4.86292 12.4682H2.17807L1.6411 13.6405H0.244995L2.50027 8.20536H4.43335L6.58123 13.3208V8.20536H8.72911L10.4474 11.8288L11.9509 8.20536H14.0988V13.6405ZM19.3611 13.6405H15.0653V8.20536H19.3611V9.37763H16.3541V10.3368H19.2537V11.4025H16.3541V12.4682H19.3611V13.6405ZM25.4826 9.69735C25.4826 10.5499 24.9456 10.9762 24.6234 11.0828C24.9456 11.1893 25.1604 11.4025 25.2678 11.509C25.4826 11.8288 25.4826 12.0419 25.4826 12.4682V13.5339H24.1938V12.8945C24.1938 12.5748 24.1938 12.1485 23.9791 11.8288C23.7643 11.6156 23.5495 11.6156 23.0125 11.6156H21.6164V13.5339H20.3276V8.20536H23.3347C23.9791 8.20536 24.516 8.20536 24.9456 8.4185C25.2678 8.73821 25.4826 9.05792 25.4826 9.69735ZM27.523 13.6405H26.2343V8.20536H27.523V13.6405ZM42.773 13.6405H40.9473L38.4772 9.59078V13.6405H35.8998L35.3628 12.4682H32.6779L32.141 13.6405H30.6375C29.9931 13.6405 29.2414 13.5339 28.8118 13.001C28.3822 12.5748 28.1674 11.9353 28.1674 10.9762C28.1674 10.1236 28.2748 9.48421 28.8118 8.84478C29.2414 8.4185 29.8857 8.20536 30.7449 8.20536H32.0336V9.37763H30.8523C30.4227 9.37763 30.1005 9.48421 29.8857 9.69735C29.6709 9.91049 29.5635 10.3368 29.5635 10.8696C29.5635 11.4025 29.6709 11.8288 29.8857 12.1485C30.1005 12.3616 30.4227 12.4682 30.7449 12.4682H31.2818L33.1075 8.20536H35.0406L37.1885 13.3208V8.20536H39.1216L41.3769 11.9353V8.20536H42.6656L42.773 13.6405ZM0.244995 14.7062H2.39287L2.92984 13.5339H4.00378L4.54075 14.7062H8.83651V13.747L9.26608 14.7062H11.5214L11.9509 13.747V14.7062H22.6903V12.7879H22.9051C23.0125 12.7879 23.1199 12.7879 23.1199 13.001V14.7062H28.7044V14.2799C29.134 14.493 29.8857 14.7062 30.7449 14.7062H33.1075L33.6445 13.5339H34.7185L35.2554 14.7062H39.7659V13.5339L40.4103 14.7062H44.0617V7.13965H40.5177V8.09879L39.8733 7.13965H36.222V8.09879L35.7924 7.24622H30.8523C29.9931 7.24622 29.2414 7.35279 28.7044 7.6725V7.13965H25.2678V7.56593C24.8382 7.24622 24.3012 7.13965 23.7643 7.13965H11.1992L10.4474 9.05792L9.58825 7.13965H5.61469V8.09879L5.18512 7.13965H1.8559L0.244995 10.7631V14.7062Z" fill="white"/>
<path d="M46.1022 18.6491H43.7395C43.5247 18.6491 43.31 18.6491 43.2026 18.7557C43.0952 18.8623 42.9878 18.9688 42.9878 19.182C42.9878 19.3951 43.0952 19.5017 43.31 19.6083C43.4174 19.6083 43.6321 19.7148 43.8469 19.7148H44.4913C45.243 19.7148 45.6726 19.8214 45.9948 20.1411L46.1022 20.2477V18.6491ZM46.1022 22.2725C45.78 22.6988 45.1357 22.9119 44.3839 22.9119H41.9138V21.7397H44.3839C44.5987 21.7397 44.8135 21.7397 44.9209 21.6331C45.0283 21.5265 45.0282 21.42 45.0282 21.3134C45.0282 21.2068 44.9209 20.9937 44.9209 20.9937C44.8135 20.8871 44.7061 20.8871 44.4913 20.8871C43.3099 20.8871 41.8064 20.8871 41.8064 19.182C41.8064 18.436 42.3434 17.5834 43.6321 17.5834H46.2096V16.5177H43.8469C43.0952 16.5177 42.5582 16.7308 42.236 16.944V16.4111H38.692C38.155 16.4111 37.5107 16.5177 37.1885 16.8374V16.4111H30.8523V16.8374C30.3153 16.5177 29.4561 16.4111 29.134 16.4111H24.8382V16.8374C24.4086 16.4111 23.5495 16.4111 23.0125 16.4111H18.3946L17.3206 17.5834L16.3541 16.4111H9.37347V23.9777H16.1393L17.2132 22.8054L18.2872 23.9777H22.4755V22.166H22.9051C23.4421 22.166 24.0864 22.166 24.7308 21.9528V23.9777H28.1674V22.0594H28.3822C28.5254 22.0594 28.597 22.1304 28.597 22.2725V23.9777H39.1216C39.7659 23.9777 40.5177 23.7645 40.8399 23.4448V23.9777H44.1691C44.8135 23.9777 45.5652 23.8711 46.1022 23.6579V22.2725ZM40.9473 20.0345C41.1621 20.2477 41.3769 20.674 41.3769 21.2068C41.3769 22.3791 40.6251 22.9119 39.3364 22.9119H36.8663V21.7397H39.3364C39.5512 21.7397 39.766 21.7397 39.8733 21.6331C39.9807 21.5265 39.9807 21.42 39.9807 21.3134C39.9807 21.2068 39.8733 20.9937 39.8733 20.9937C39.766 20.8871 39.6586 20.8871 39.4438 20.8871C38.2624 20.8871 36.7589 20.8871 36.7589 19.182C36.7589 18.436 37.2959 17.5834 38.5846 17.5834H41.1621V18.7557H38.7994C38.5846 18.7557 38.3698 18.7557 38.2624 18.8623C38.155 18.9688 38.0476 19.0754 38.0476 19.2885C38.0476 19.5017 38.155 19.6083 38.3698 19.7148C38.4772 19.7148 38.692 19.8214 38.9068 19.8214H39.5512C40.1955 19.6083 40.6251 19.8214 40.9473 20.0345ZM29.3488 19.7148C29.134 19.8214 28.9192 19.8214 28.7044 19.8214H27.0935V18.6491H28.7044C28.9192 18.6491 29.134 18.6491 29.3488 18.7557C29.5635 18.8623 29.5635 18.9688 29.5635 19.2885C29.5635 19.5017 29.4561 19.6083 29.3488 19.7148ZM30.1005 20.3543C30.4227 20.4608 30.6375 20.674 30.7449 20.7805C30.9596 20.9937 30.9597 21.3134 30.9597 21.7397V22.8054H29.6709V22.166C29.6709 21.8462 29.6709 21.3134 29.4561 21.1002C29.2413 20.8871 29.0266 20.8871 28.4896 20.8871H27.0935V22.8054H25.8047V17.4768H28.8118C29.4561 17.4768 29.8857 17.4768 30.3153 17.69C30.7449 17.9031 30.9597 18.2228 30.9597 18.8623C30.9597 19.8214 30.4227 20.2477 30.1005 20.3543ZM31.7114 17.4768H36.0072V18.5425H33.0001V19.5017H35.8998V20.5674H33.0001V21.6331H36.0072V22.8054H31.7114V17.4768ZM23.0125 20.0345H21.4016V18.6491H23.1199C23.5495 18.6491 23.8717 18.8623 23.8717 19.2885C23.8717 19.7148 23.5495 20.0345 23.0125 20.0345ZM20.1129 22.3791L18.1798 20.1411L20.1129 18.0097V22.3791ZM14.9579 21.7397H11.8435V20.674H14.6358V19.6083H11.8435V18.6491H15.0653L16.4615 20.2477L14.9579 21.7397ZM25.1604 19.2885C25.1604 20.7805 24.0864 21.1002 22.9051 21.1002H21.2942V22.9119H18.8241L17.3206 21.1002L15.7097 22.9119H10.5548V17.4768H15.7097L17.3206 19.2885L18.9315 17.4768H23.0125C24.0864 17.4768 25.1604 17.7966 25.1604 19.2885Z" fill="white"/>
<defs>
<radialGradient id="paint0_radial_104_8279" cx="0" cy="0" r="1" gradientUnits="userSpaceOnUse" gradientTransform="translate(8.42839 5.70153) scale(43.1724 42.8414)">
<stop stop-color="#9DD5F6"/>
<stop offset="0.07" stop-color="#98D3F5"/>
<stop offset="0.16" stop-color="#89CEF3"/>
<stop offset="0.25" stop-color="#70C6EF"/>
<stop offset="0.35" stop-color="#4EBBEA"/>
<stop offset="0.45" stop-color="#23ADE3"/>
<stop offset="0.5" stop-color="#0DA6E0"/>
<stop offset="1" stop-color="#2E77BC"/>
</radialGradient>
</defs>
</svg>
