<svg width="100" height="32" viewBox="0 0 100 32" fill="none" xmlns="http://www.w3.org/2000/svg">
<path fill-rule="evenodd" clip-rule="evenodd" d="M3.87971 0C1.73587 0 -0.00012207 1.74344 -0.00012207 3.8916V27.2412C-0.00012207 29.3894 1.73587 31.1328 3.87971 31.1328H33.1928C34.636 31.1328 35.9641 30.3234 36.6334 29.0365L42.6989 17.3617C42.9813 16.8117 43.1277 16.1994 43.1382 15.5975V15.5353C43.1382 14.9334 42.9918 14.3211 42.6989 13.7711L36.6334 2.09628C35.9641 0.809453 34.636 0 33.1928 0L3.87971 0Z" fill="url(#paint0_linear_104_8298)"/>
<path fill-rule="evenodd" clip-rule="evenodd" d="M54.2234 4.03689C54.8404 3.72556 55.5934 3.95387 55.9176 4.55577L58.6157 9.62004L61.3138 4.55577C61.6379 3.95387 62.3909 3.72556 63.0079 4.03689C63.6249 4.34822 63.8655 5.08503 63.5413 5.68693L57.8104 16.4589C57.5908 16.8636 57.1829 17.1023 56.7542 17.1127C56.545 17.1127 56.3254 17.0815 56.1162 16.9778C55.4992 16.6664 55.2587 15.9296 55.5829 15.3277L57.2039 12.2767L53.7005 5.68693C53.3763 5.08503 53.6168 4.34822 54.2339 4.03689H54.2234ZM84.3627 3.73594C85.7222 3.73594 86.998 4.25482 87.9601 5.1888C88.4517 5.66617 88.4517 6.44449 87.9601 6.92186C87.4686 7.39923 86.6738 7.39923 86.1823 6.92186C85.7013 6.44449 85.0529 6.18505 84.3627 6.18505C83.6725 6.18505 83.0345 6.44449 82.543 6.92186C82.062 7.39923 81.7901 8.02189 81.7901 8.69643C81.7901 9.37098 82.062 9.99364 82.543 10.471C83.0345 10.9484 83.6725 11.2078 84.3627 11.2078C85.0529 11.2078 85.6908 10.9484 86.1823 10.471C86.6738 9.99364 87.4686 9.99364 87.9601 10.471C88.4517 10.9484 88.4517 11.7267 87.9601 12.2041C86.998 13.1381 85.7222 13.6569 84.3627 13.6569C83.0032 13.6569 81.7273 13.1381 80.7652 12.2041C79.8031 11.2701 79.2802 10.0248 79.2802 8.69643C79.2802 7.3681 79.8136 6.12279 80.7652 5.1888C81.7273 4.25482 83.0032 3.73594 84.3627 3.73594ZM94.5172 3.73594C97.3198 3.73594 99.5996 5.95675 99.5996 8.69643C99.5996 11.4361 97.3198 13.6569 94.5172 13.6569C91.7145 13.6569 89.4347 11.4361 89.4347 8.69643C89.4347 5.95675 91.7145 3.73594 94.5172 3.73594ZM50.7932 3.90198C51.4835 3.90198 52.0482 4.45199 52.0482 5.12654V12.2871C52.0482 12.9616 51.4835 13.5116 50.7932 13.5116C50.103 13.5116 49.5383 12.9616 49.5383 12.2871V5.12654C49.5383 4.45199 50.103 3.90198 50.7932 3.90198ZM76.3729 3.90198C77.0632 3.90198 77.6279 4.45199 77.6279 5.12654V12.2871C77.6279 12.9616 77.0632 13.5116 76.3729 13.5116C75.6827 13.5116 75.118 12.9616 75.118 12.2871V5.12654C75.118 4.45199 75.6827 3.90198 76.3729 3.90198ZM71.9911 3.90198C72.2944 3.90198 72.5977 3.985 72.8382 4.19255C73.3716 4.62841 73.4343 5.39636 72.9951 5.91524L68.561 11.0625H72.033C72.7232 11.0625 73.2879 11.6125 73.2879 12.2871C73.2879 12.9616 72.7232 13.5116 72.033 13.5116H65.8629C65.5805 13.5116 65.2877 13.4182 65.0576 13.2211C64.5243 12.7852 64.4615 12.0173 64.9008 11.4984L69.3349 6.35109H66.4381C65.7479 6.35109 65.1831 5.80108 65.1831 5.12654C65.1831 4.45199 65.7479 3.90198 66.4381 3.90198H71.9911ZM94.5276 6.18505C93.1054 6.18505 91.955 7.30583 91.955 8.69643C91.955 10.087 93.1054 11.2078 94.5276 11.2078C95.9499 11.2078 97.1002 10.087 97.1002 8.69643C97.1002 7.30583 95.9499 6.18505 94.5276 6.18505ZM50.8037 0C51.5671 0 52.1946 0.601901 52.1946 1.34909C52.1946 2.09628 51.5776 2.69818 50.8037 2.69818C50.0298 2.69818 49.4128 2.09628 49.4128 1.34909C49.4128 0.601901 50.0298 0 50.8037 0ZM76.3834 0C77.1468 0 77.7743 0.601901 77.7743 1.34909C77.7743 2.09628 77.1573 2.69818 76.3834 2.69818C75.6095 2.69818 74.9925 2.09628 74.9925 1.34909C74.9925 0.601901 75.6095 0 76.3834 0Z" fill="#1E64FF"/>
<path fill-rule="evenodd" clip-rule="evenodd" d="M68.5087 20.8901C70.6317 20.8901 72.7337 22.6647 72.7337 25.228C72.7337 27.7912 70.6317 29.5658 68.5087 29.5658C66.3858 29.5658 64.2838 27.7912 64.2838 25.228C64.2838 22.6647 66.3858 20.8901 68.5087 20.8901ZM79.1234 20.8071C79.4789 20.8071 79.7822 21.0977 79.7822 21.4505V28.9224C79.7822 29.2752 79.4789 29.5658 79.1234 29.5658C78.7678 29.5658 78.475 29.2752 78.475 28.9224V28.2686C78.3913 28.8186 77.6384 29.5866 76.488 29.5866C75.1389 29.5866 73.5285 28.5384 73.5285 26.3384C73.5285 24.1383 75.1599 23.1005 76.488 23.1005C77.3874 23.1005 78.1612 23.5675 78.475 24.2628V23.7751C78.475 23.7751 78.475 23.6921 78.4854 23.6506V21.4505C78.4854 21.0977 78.7783 20.8071 79.1129 20.8071H79.1234ZM49.9357 23.1317C50.2076 23.1317 50.4377 23.36 50.4377 23.6402V29.0365C50.4377 29.3271 50.2076 29.5554 49.9357 29.5554C49.6638 29.5554 49.4233 29.3271 49.4233 29.0365V23.6402C49.4233 23.36 49.6534 23.1317 49.9357 23.1317ZM52.2887 20.8071C52.5606 20.8071 52.7907 21.0354 52.7907 21.3052V29.0365C52.7907 29.3064 52.5606 29.545 52.2887 29.545C52.0168 29.545 51.7763 29.3064 51.7763 29.0365V21.3052C51.7763 21.0354 52.0064 20.8071 52.2887 20.8071ZM56.9843 23.0902C58.3647 23.0902 60.0275 24.1798 60.0275 26.1516C60.0275 26.5355 59.7974 26.7223 59.3896 26.7223L54.9241 26.7016C55.0287 28.061 56.0744 28.7045 57.1202 28.7045C57.6745 28.7045 58.1242 28.5488 58.532 28.2375C58.7098 28.1129 58.8248 28.0507 58.9608 28.0507C59.1909 28.0507 59.3373 28.2063 59.3373 28.4243C59.3373 28.5592 59.2745 28.6941 59.0654 28.8705C58.5843 29.296 57.8627 29.5243 57.0993 29.5243C55.5411 29.5243 53.8783 28.5073 53.8783 26.3176C53.8783 24.1279 55.6038 23.0694 56.9843 23.0694V23.0902ZM84.0071 23.0902C85.3876 23.0902 87.0503 24.1798 87.0503 26.1204C87.0503 26.6186 86.768 26.8157 86.2451 26.8157H82.177C82.313 27.9365 83.2019 28.4969 84.164 28.4969C84.666 28.4969 85.0006 28.3724 85.3771 28.1441C85.5863 28.0299 85.7222 27.9469 85.8895 27.9469C86.1719 27.9469 86.3392 28.1441 86.3392 28.4139C86.3392 28.5695 86.2765 28.746 86.015 28.9639C85.5549 29.3375 84.8856 29.5554 84.1222 29.5554C82.5431 29.5554 80.8593 28.5488 80.8593 26.3487C80.8593 24.1487 82.6163 23.1005 84.0071 23.1005V23.0902ZM76.6867 24.2006C75.7978 24.2006 74.8043 24.8959 74.8043 26.328C74.8043 27.7601 75.7978 28.4658 76.6867 28.4658C77.5129 28.4658 78.5377 27.8327 78.5377 26.328C78.5377 24.8232 77.5129 24.2006 76.6867 24.2006ZM68.4983 22.1354C67.0133 22.1354 65.6433 23.3911 65.6433 25.2383C65.6433 27.0855 67.0133 28.3309 68.4983 28.3309C69.9833 28.3309 71.3532 27.0855 71.3532 25.2383C71.3532 23.3911 69.9937 22.1354 68.4983 22.1354ZM56.9843 23.9826C56.0849 23.9826 55.0287 24.5949 54.9241 25.9544H59.0549C58.9503 24.5949 57.9045 23.9826 56.9947 23.9826H56.9843ZM84.0071 24.211C83.2019 24.211 82.2921 24.7195 82.1875 25.8817H85.8059C85.7013 24.7298 84.8228 24.211 84.0071 24.211ZM49.9253 20.6826C50.1972 20.6826 50.4377 20.9109 50.4377 21.1911C50.4377 21.4713 50.1972 21.6996 49.9253 21.6996C49.6534 21.6996 49.4024 21.4713 49.4024 21.1911C49.4024 20.9109 49.6429 20.6826 49.9253 20.6826ZM69.9833 18.6797C70.3702 18.6797 70.6839 18.991 70.6839 19.375C70.6839 19.759 70.3702 20.0703 69.9833 20.0703C69.5963 20.0703 69.2826 19.759 69.2826 19.375C69.2826 18.991 69.5963 18.6797 69.9833 18.6797ZM66.9923 18.6797C67.3793 18.6797 67.693 18.991 67.693 19.375C67.693 19.759 67.3793 20.0703 66.9923 20.0703C66.6054 20.0703 66.2917 19.759 66.2917 19.375C66.2917 18.991 66.6054 18.6797 66.9923 18.6797Z" fill="#495057"/>
<defs>
<linearGradient id="paint0_linear_104_8298" x1="39.0989" y1="15.5145" x2="-0.156989" y2="15.5145" gradientUnits="userSpaceOnUse">
<stop stop-color="#1E64FF"/>
<stop offset="1" stop-color="#1E64FF" stop-opacity="0"/>
</linearGradient>
</defs>
</svg>
