<svg width="43" height="32" viewBox="0 0 43 32" fill="none" xmlns="http://www.w3.org/2000/svg">
<path fill-rule="evenodd" clip-rule="evenodd" d="M27.3283 22.6994H15.9446V2.66406H27.3283V22.6994Z" fill="#6C6BBD"/>
<path fill-rule="evenodd" clip-rule="evenodd" d="M16.6963 12.6819C16.6963 8.63223 18.6294 5.00883 21.6364 2.66427C19.3811 1.06571 16.6963 0 13.6893 0C6.49386 0 0.69458 5.64825 0.69458 12.6819C0.69458 19.7156 6.49386 25.3638 13.6893 25.3638C16.6963 25.3638 19.4885 24.2981 21.6364 22.593C18.6294 20.355 16.6963 16.7316 16.6963 12.6819Z" fill="#D32011"/>
<path fill-rule="evenodd" clip-rule="evenodd" d="M42.5782 12.6819C42.5782 19.7156 36.779 25.3638 29.5836 25.3638C26.5765 25.3638 23.7843 24.2981 21.6364 22.593C24.6434 20.2484 26.5765 16.625 26.5765 12.5753C26.5765 8.52566 24.6434 4.90226 21.6364 2.5577C23.8917 1.06571 26.5765 0 29.5836 0C36.779 0 42.5782 5.64825 42.5782 12.6819Z" fill="#0099DF"/>
<path d="M31.0871 28.3479C31.1945 28.3479 31.4093 28.3479 31.6241 28.4545L31.4093 29.0939C31.3019 28.9874 31.0871 28.9874 30.9797 28.9874C30.4427 28.9874 30.2279 29.3071 30.2279 29.8399V31.7582H29.4762V28.3479H30.2279V28.7742C30.4427 28.5611 30.6575 28.3479 31.0871 28.3479ZM28.4022 29.0939H27.2209V30.5859C27.2209 30.9056 27.3283 31.1188 27.7579 31.1188C27.9727 31.1188 28.1875 31.0122 28.4022 30.9056L28.617 31.5451C28.4022 31.7582 27.9727 31.7582 27.6505 31.7582C26.7913 31.7582 26.4691 31.3319 26.4691 30.4793V28.9874H25.8248V28.3479H26.4691V27.2822H27.2209V28.3479H28.4022V29.0939ZM18.8442 29.8399C18.9516 29.3071 19.2738 28.9874 19.8107 28.9874C20.2403 28.9874 20.5625 29.3071 20.6699 29.8399H18.8442ZM21.3142 30.1596C21.3142 29.0939 20.6699 28.3479 19.7033 28.3479C18.7368 28.3479 17.985 29.0939 17.985 30.1596C17.985 31.2253 18.7368 31.9713 19.7033 31.9713C20.2403 31.9713 20.6699 31.8648 21.0995 31.5451L20.7773 30.9056C20.4551 31.1188 20.1329 31.2253 19.8107 31.2253C19.3812 31.2253 18.8442 31.0122 18.7368 30.3728H21.3142V30.1596ZM24.6435 29.3071C24.4287 29.2005 23.9991 28.9874 23.5695 28.9874C23.1399 28.9874 22.9251 29.0939 22.9251 29.4136C22.9251 29.6268 23.1399 29.7334 23.4621 29.7334H23.7843C24.5361 29.8399 24.9656 30.1596 24.9656 30.6925C24.9656 31.3319 24.4287 31.7582 23.3547 31.7582C22.8178 31.7582 22.2808 31.6516 21.8512 31.3319L22.1734 30.7991C22.3882 31.0122 22.8178 31.1188 23.3547 31.1188C23.8917 31.1188 24.1065 31.0122 24.1065 30.6925C24.1065 30.4793 23.8917 30.3728 23.4621 30.3728H23.1399C22.3882 30.2662 21.9586 29.9465 21.9586 29.4136C21.9586 28.7742 22.4956 28.3479 23.3547 28.3479C23.8917 28.3479 24.4287 28.4545 24.7508 28.6676L24.6435 29.3071ZM33.8793 29.0939C33.7719 29.0939 33.5571 29.0939 33.4498 29.2005C33.3424 29.3071 33.235 29.3071 33.1276 29.4136C33.0202 29.5202 32.9128 29.6268 32.9128 29.7334C32.8054 29.8399 32.8054 30.0531 32.8054 30.1596C32.8054 30.3728 32.8054 30.4793 32.9128 30.5859C33.0202 30.6925 33.0202 30.7991 33.1276 30.9056C33.235 31.0122 33.3424 31.1188 33.4498 31.1188C33.5571 31.2253 33.7719 31.2253 33.8793 31.2253C33.9867 31.2253 34.2015 31.2253 34.3089 31.1188C34.4163 31.0122 34.5237 31.0122 34.6311 30.9056C34.7385 30.7991 34.8459 30.6925 34.8459 30.5859C34.9533 30.4793 34.9533 30.2662 34.9533 30.1596C34.9533 29.9465 34.9533 29.8399 34.8459 29.7334C34.7385 29.6268 34.7385 29.5202 34.6311 29.4136C34.5237 29.3071 34.4163 29.2005 34.3089 29.2005C34.2015 29.0939 33.9867 29.0939 33.8793 29.0939ZM33.8793 28.3479C34.0941 28.3479 34.4163 28.3479 34.6311 28.4545C34.8459 28.5611 35.0607 28.6676 35.1681 28.8808C35.3829 28.9874 35.4902 29.2005 35.5976 29.4136C35.705 29.6268 35.705 29.8399 35.705 30.1596C35.705 30.4793 35.705 30.6925 35.5976 30.9056C35.4902 31.1188 35.3829 31.3319 35.1681 31.4385C34.9533 31.5451 34.8459 31.7582 34.6311 31.8648C34.4163 31.9713 34.2015 31.9713 33.8793 31.9713C33.6645 31.9713 33.3424 31.9713 33.1276 31.8648C32.9128 31.7582 32.698 31.6516 32.5906 31.4385C32.3758 31.3319 32.2684 31.1188 32.161 30.9056C32.0536 30.6925 32.0536 30.4793 32.0536 30.1596C32.0536 29.8399 32.0536 29.6268 32.161 29.4136C32.2684 29.2005 32.3758 28.9874 32.5906 28.8808C32.8054 28.7742 32.9128 28.5611 33.1276 28.4545C33.3424 28.3479 33.5571 28.3479 33.8793 28.3479ZM14.441 30.1596C14.441 29.5202 14.8706 29.0939 15.515 29.0939C16.1593 29.0939 16.5889 29.5202 16.5889 30.1596C16.5889 30.7991 16.1593 31.2253 15.515 31.2253C14.8706 31.2253 14.441 30.6925 14.441 30.1596ZM17.2333 30.1596V28.4545H16.4815V28.8808C16.2667 28.5611 15.8371 28.3479 15.4076 28.3479C14.441 28.3479 13.6893 29.0939 13.6893 30.1596C13.6893 31.2253 14.441 31.9713 15.4076 31.9713C15.9445 31.9713 16.2667 31.7582 16.4815 31.4385V31.8648H17.2333V30.1596ZM13.0449 31.7582V29.6268C13.0449 28.8808 12.5079 28.2414 11.6488 28.2414C11.2192 28.2414 10.7896 28.3479 10.4675 28.8808C10.2527 28.4545 9.82309 28.2414 9.28612 28.2414C8.96394 28.2414 8.53437 28.3479 8.31958 28.7742V28.3479H7.56781V31.7582H8.31958V29.8399C8.31958 29.3071 8.64175 28.9874 9.17872 28.9874C9.71569 28.9874 9.93049 29.3071 9.93049 29.8399V31.7582H10.6822V29.8399C10.6822 29.3071 11.0044 28.9874 11.5414 28.9874C12.0784 28.9874 12.2932 29.3071 12.2932 29.8399V31.7582H13.0449Z" fill="#110F0D"/>
</svg>
