<svg width="43" height="33" viewBox="0 0 43 33" fill="none" xmlns="http://www.w3.org/2000/svg">
<path d="M8.33034 31.8649V29.7335C8.33034 28.8809 7.79337 28.3481 6.93421 28.3481C6.50464 28.3481 6.07506 28.4546 5.75287 28.9875C5.53809 28.5612 5.10852 28.3481 4.57155 28.3481C4.24937 28.3481 3.81978 28.4546 3.605 28.8809V28.4546H2.85324V31.8649H3.605V29.9466C3.605 29.3072 3.92718 29.0941 4.46415 29.0941C5.00112 29.0941 5.2159 29.4138 5.2159 29.9466V31.8649H5.96766V29.9466C5.96766 29.3072 6.28984 29.0941 6.82681 29.0941C7.36378 29.0941 7.57857 29.4138 7.57857 29.9466V31.8649H8.33034ZM19.4993 28.4546H18.318V27.3889H17.5662V28.4546H16.8145V29.0941H17.4588V30.6926C17.4588 31.4386 17.781 31.9715 18.6401 31.9715C18.9623 31.9715 19.2845 31.8649 19.6067 31.7583L19.3919 31.1189C19.1771 31.2255 18.9623 31.332 18.7475 31.332C18.4254 31.332 18.2106 31.1189 18.2106 30.7992V29.3072H19.3919V28.4546H19.4993ZM25.8355 28.3481C25.406 28.3481 25.0838 28.5612 24.9764 28.8809V28.4546H24.2246V31.8649H24.9764V29.9466C24.9764 29.4138 25.1912 29.0941 25.7282 29.0941C25.8355 29.0941 26.0503 29.0941 26.1577 29.2006L26.3725 28.4546C26.2651 28.3481 26.0503 28.3481 25.8355 28.3481ZM16.1701 28.6678C15.8479 28.4546 15.3109 28.3481 14.774 28.3481C13.9148 28.3481 13.3778 28.7743 13.3778 29.4138C13.3778 29.9466 13.8074 30.2663 14.5592 30.3729H14.8814C15.3109 30.4795 15.5257 30.586 15.5257 30.6926C15.5257 30.9058 15.2035 31.1189 14.774 31.1189C14.237 31.1189 13.9148 30.9058 13.5926 30.7992L13.2704 31.332C13.7 31.6518 14.237 31.7583 14.774 31.7583C15.7405 31.7583 16.3849 31.332 16.3849 30.6926C16.3849 30.0532 15.9553 29.7335 15.2035 29.6269H14.8814C14.5592 29.6269 14.3444 29.5203 14.3444 29.3072C14.3444 29.0941 14.5592 28.8809 14.9888 28.8809C15.4183 28.8809 15.8479 29.0941 16.0627 29.2006L16.1701 28.6678ZM36.2528 28.3481C35.8232 28.3481 35.501 28.5612 35.3936 28.8809V28.4546H34.6419V31.8649H35.3936V29.9466C35.3936 29.4138 35.6084 29.0941 36.1454 29.0941C36.2528 29.0941 36.4675 29.0941 36.5749 29.2006L36.7897 28.4546C36.5749 28.3481 36.3602 28.3481 36.2528 28.3481ZM26.5873 30.1598C26.5873 31.2255 27.3391 31.9715 28.413 31.9715C28.95 31.9715 29.2721 31.8649 29.5943 31.5452L29.3795 30.9058C29.0574 31.1189 28.8426 31.2255 28.5204 31.2255C27.876 31.2255 27.4464 30.7992 27.4464 30.1598C27.4464 29.5203 27.876 29.0941 28.5204 29.0941C28.8426 29.0941 29.1648 29.2006 29.3795 29.4138L29.7017 28.7743C29.3795 28.4546 28.95 28.3481 28.5204 28.3481C27.3391 28.3481 26.5873 29.0941 26.5873 30.1598ZM33.5679 30.1598V28.4546H32.8161V28.8809C32.6014 28.5612 32.1718 28.3481 31.7422 28.3481C30.7757 28.3481 30.0239 29.0941 30.0239 30.1598C30.0239 31.2255 30.7757 31.9715 31.7422 31.9715C32.2792 31.9715 32.6014 31.7583 32.8161 31.4386V31.8649H33.5679V30.1598ZM30.8831 30.1598C30.8831 29.5203 31.3126 29.0941 31.957 29.0941C32.6014 29.0941 33.0309 29.5203 33.0309 30.1598C33.0309 30.7992 32.6014 31.2255 31.957 31.2255C31.2052 31.2255 30.8831 30.6926 30.8831 30.1598ZM21.862 28.3481C20.8954 28.3481 20.1437 29.0941 20.1437 30.1598C20.1437 31.2255 20.8954 31.9715 21.862 31.9715C22.3989 31.9715 22.8285 31.8649 23.2581 31.5452L22.9359 30.9058C22.6137 31.1189 22.2915 31.2255 21.9694 31.2255C21.5398 31.2255 21.0028 31.0123 20.8954 30.3729H23.4729V30.0532C23.4729 29.0941 22.8285 28.3481 21.862 28.3481ZM21.862 28.9875C22.2915 28.9875 22.6137 29.3072 22.7211 29.8401H20.8954C21.0028 29.3072 21.325 28.9875 21.862 28.9875ZM40.5485 30.1598V27.1758H39.7967V28.9875C39.582 28.6678 39.1524 28.4546 38.7228 28.4546C37.7563 28.4546 37.0045 29.2006 37.0045 30.2663C37.0045 31.332 37.7563 32.078 38.7228 32.078C39.2598 32.078 39.582 31.8649 39.7967 31.5452V31.9715H40.5485V30.1598ZM37.7563 30.1598C37.7563 29.5203 38.1858 29.0941 38.8302 29.0941C39.4746 29.0941 39.9041 29.5203 39.9041 30.1598C39.9041 30.7992 39.4746 31.2255 38.8302 31.2255C38.1858 31.2255 37.7563 30.6926 37.7563 30.1598ZM12.5187 30.1598V28.4546H11.7669V28.8809C11.5522 28.5612 11.1226 28.3481 10.693 28.3481C9.72646 28.3481 8.97469 29.0941 8.97469 30.1598C8.97469 31.2255 9.72646 31.9715 10.693 31.9715C11.23 31.9715 11.5522 31.7583 11.7669 31.4386V31.8649H12.5187V30.1598ZM9.72645 30.1598C9.72645 29.5203 10.156 29.0941 10.8004 29.0941C11.4447 29.0941 11.8743 29.5203 11.8743 30.1598C11.8743 30.7992 11.4447 31.2255 10.8004 31.2255C10.156 31.2255 9.72645 30.6926 9.72645 30.1598Z" fill="black"/>
<path d="M27.2317 2.66406H15.9553V22.5928H27.2317V2.66406Z" fill="#FF5F00"/>
<path fill-rule="evenodd" clip-rule="evenodd" d="M16.707 12.6819C16.707 8.63223 18.6401 5.00883 21.6471 2.66427C19.3918 1.06571 16.5996 0 13.5926 0C6.50456 0 0.705292 5.64825 0.705292 12.6819C0.705292 19.7156 6.50456 25.3638 13.5926 25.3638C16.5996 25.3638 19.3918 24.2981 21.5397 22.6996C18.6401 20.355 16.707 16.7316 16.707 12.6819Z" fill="#EB001B"/>
<path fill-rule="evenodd" clip-rule="evenodd" d="M42.5889 12.6819C42.5889 19.7156 36.7896 25.3638 29.7016 25.3638C26.6946 25.3638 23.9023 24.2981 21.7545 22.6996C24.7615 20.355 26.6946 16.7316 26.6946 12.6819C26.6946 8.63223 24.7615 5.00883 21.7545 2.66427C23.7949 1.06571 26.5872 0 29.5942 0C36.7896 0 42.5889 5.75482 42.5889 12.6819Z" fill="#F79E1B"/>
</svg>
