<svg width="64" height="29" viewBox="0 0 64 29" fill="none" xmlns="http://www.w3.org/2000/svg">
<path fill-rule="evenodd" clip-rule="evenodd" d="M3.04321 24.967H2.61368C2.61368 24.967 2.50624 24.967 2.50624 25.0736V25.1802H2.29144V24.967C2.29144 24.8605 2.39885 24.7539 2.50624 24.7539H3.90235C4.00975 24.7539 4.11718 24.7539 4.00979 24.967V25.1802H3.79498V24.967H3.25801L2.82841 26.8853H2.61368L3.04321 24.967Z" fill="#323E48"/>
<path d="M4.11724 25.6065L3.90244 25.4999V25.2868H4.11724C4.22463 25.2868 4.33207 25.2868 4.22467 25.4999L4.11724 26.2459C4.11724 26.459 4.11725 26.6722 4.33204 26.6722C4.65422 26.6722 4.97638 26.3525 4.97638 26.0328L5.08381 25.2868H5.40598L5.08381 26.5656V26.6722H5.19118V26.8853H5.08381C4.97642 26.8853 4.86899 26.7788 4.97638 26.6722V26.459C4.86899 26.6722 4.65422 26.8853 4.33204 26.8853C3.90247 26.8853 3.79505 26.6722 3.90244 26.3525L4.11724 25.6065ZM4.54684 24.7539H4.76164L4.65421 25.0736H4.54684V24.7539ZM4.97638 24.7539H5.19118V25.0736H4.97638V24.7539Z" fill="#323E48"/>
<path fill-rule="evenodd" clip-rule="evenodd" d="M5.83547 25.6068L5.72803 25.5003V25.2871H5.94284C6.05023 25.2871 6.1576 25.2871 6.0502 25.5003V25.7134C6.1576 25.5003 6.37238 25.2871 6.58717 25.2871H6.69461V25.5003H6.58717C6.37238 25.5003 6.1576 25.7134 6.0502 25.9265C6.0502 26.0331 5.94284 26.1397 5.94284 26.2462L5.83547 26.8857H5.62067L5.83547 25.6068Z" fill="#323E48"/>
<path fill-rule="evenodd" clip-rule="evenodd" d="M7.01694 25.0736C7.01694 25.0026 7.01694 25.0026 7.01694 25.0736L6.80214 24.967V24.7539H7.01694C7.12434 24.7539 7.2317 24.7539 7.12431 24.967L7.01694 25.9262H7.12431C7.19591 25.9262 7.26752 25.8907 7.33911 25.8196L7.87608 25.2868H8.09088L7.55391 25.9262L7.44655 26.0328L7.55391 26.1393L7.66128 26.6722C7.66128 26.6722 7.66132 26.7788 7.76871 26.7788H7.87608V26.9919H7.66128C7.55389 26.9919 7.44655 26.9919 7.44655 26.8853L7.23174 26.1393C7.23174 26.0328 7.12431 26.0328 7.12431 26.0328H7.01694L6.80214 26.8853H6.58734L7.01694 25.0736Z" fill="#323E48"/>
<path d="M8.73489 25.6065C8.73489 25.6065 8.73491 25.4999 8.62752 25.4999H8.30535L8.41272 25.2868H8.94969C9.27187 25.2868 9.37925 25.2868 9.27186 25.4999L8.62752 26.5656C8.62752 26.5656 8.62749 26.6722 8.73489 26.6722H9.05712L8.94969 26.8853H8.52015C8.19797 26.8853 8.09052 26.7788 8.19792 26.6722L8.73489 25.6065ZM9.16449 24.7539H9.59409L9.48666 25.0736H9.05712L9.16449 24.7539Z" fill="#323E48"/>
<path fill-rule="evenodd" clip-rule="evenodd" d="M8.84249 27.312C8.94989 27.312 9.05727 27.2054 9.16466 27.0988L9.27203 26.8857L9.05729 25.6068C9.05729 25.6068 9.05726 25.5003 8.94986 25.5003V25.2871H9.05729C9.16469 25.2871 9.27203 25.2871 9.27203 25.3937L9.48683 26.3528V26.566C9.48683 26.566 9.48687 26.4594 9.59426 26.3528L10.1312 25.3937C10.2028 25.3226 10.2744 25.2871 10.346 25.2871H10.4534V25.5003C10.4534 25.5003 10.346 25.5003 10.346 25.6068L9.27203 27.2054C9.16464 27.312 8.94985 27.4185 8.73506 27.4185C8.52027 27.4185 8.52032 27.312 8.52032 27.312L8.62769 27.2054C8.62769 27.2054 8.62771 27.312 8.84249 27.312Z" fill="#323E48"/>
<path d="M11.3125 25.2871C11.7421 25.2871 11.9569 25.6068 11.8495 26.0331V26.1397H10.6682C10.5608 26.4594 10.7755 26.6725 11.0977 26.6725C11.4199 26.6725 11.6347 26.4594 11.6347 26.4594L11.7421 26.566C11.7421 26.566 11.5273 26.7791 11.0977 26.7791C10.6681 26.7791 10.346 26.4594 10.4534 26.0331C10.5608 25.6068 10.8829 25.2871 11.3125 25.2871ZM11.6347 25.9265C11.7421 25.6068 11.5273 25.5003 11.3125 25.5003C11.0977 25.5003 10.7756 25.7134 10.6682 25.9265H11.6347Z" fill="#323E48"/>
<path fill-rule="evenodd" clip-rule="evenodd" d="M12.3866 24.7539H12.6014L12.3866 25.2868H12.1718L12.3866 24.7539Z" fill="#323E48"/>
<path fill-rule="evenodd" clip-rule="evenodd" d="M12.8161 25.6068L12.7086 25.5003V25.2871H12.9234C13.0308 25.2871 13.1382 25.2871 13.0308 25.5003V25.7134C13.1382 25.6068 13.353 25.2871 13.6752 25.2871C14.1048 25.2871 14.1047 25.5003 14.1047 25.82L13.9974 26.566V26.6725H14.1047V26.8857H13.89C13.7826 26.8857 13.6752 26.7791 13.7826 26.6725L13.89 25.9265C13.89 25.7134 13.9974 25.5003 13.6752 25.5003C13.4604 25.5003 13.1382 25.7134 13.0308 25.9265C13.0308 25.9976 12.995 26.0686 12.9234 26.1397L12.8161 26.8857H12.6013L12.8161 25.6068Z" fill="#323E48"/>
<path d="M14.9639 25.6065C14.9639 25.6065 14.9639 25.4999 14.8565 25.4999H14.5343L14.6417 25.2868H15.1786C15.5008 25.2868 15.6083 25.2868 15.5009 25.4999L14.9639 26.5656C14.9639 26.5656 14.9639 26.6722 15.0713 26.6722H15.3934L15.2861 26.8853H14.7491C14.4269 26.8853 14.3195 26.7788 14.4269 26.6722L14.9639 25.6065ZM15.3934 24.7539H15.823L15.7156 24.967H15.2861L15.3934 24.7539Z" fill="#323E48"/>
<path fill-rule="evenodd" clip-rule="evenodd" d="M15.3935 25.6068L15.1787 25.5003V25.2871H15.3935C15.5009 25.2871 15.6083 25.2871 15.501 25.5003V25.7134C15.6083 25.6068 15.9305 25.2871 16.2527 25.2871C16.5748 25.2871 16.6823 25.5003 16.5749 25.82L16.4675 26.566V26.6725H16.5749V26.8857H16.3601C16.2527 26.8857 16.1453 26.7791 16.2527 26.6725L16.3601 25.9265C16.3601 25.7134 16.4675 25.5003 16.1453 25.5003C15.9305 25.5003 15.6083 25.7134 15.501 25.9265C15.501 25.9976 15.4651 26.0686 15.3935 26.1397L15.1787 26.8857H15.0714L15.3935 25.6068Z" fill="#323E48"/>
<path d="M19.1524 24.7544C19.7967 24.7544 20.1189 25.1807 20.0115 25.8201C19.9041 26.4595 19.2598 26.8858 18.7228 26.8858C18.0785 26.8858 17.7562 26.4595 17.8636 25.8201C17.971 25.1807 18.508 24.7544 19.1524 24.7544ZM18.6154 26.6727C19.045 26.6727 19.5819 26.2464 19.6893 25.8201C19.7967 25.2873 19.4746 24.9675 19.045 24.9675C18.6154 24.9675 18.0784 25.3938 17.971 25.8201C17.8636 26.353 18.1858 26.6727 18.6154 26.6727ZM18.9375 24.3281H19.1524L19.045 24.5413H18.8302L18.9375 24.3281ZM19.3672 24.3281H19.582L19.4745 24.5413H19.2598L19.3672 24.3281Z" fill="#323E48"/>
<path d="M20.978 25.2879C21.3002 25.2879 21.4076 25.6076 21.4076 25.6076V25.501L21.515 24.9681V24.8616H21.4076V24.6484H21.6223C21.7297 24.6484 21.8372 24.6484 21.7298 24.8616L21.4076 26.4601V26.5667H21.515V26.7799H21.3002C21.1928 26.7799 21.0854 26.6733 21.1928 26.5667V26.4601C21.1928 26.4601 20.978 26.7799 20.6558 26.7799C20.2263 26.7799 20.1188 26.4601 20.2262 26.0339C20.2262 25.6076 20.5484 25.2879 20.978 25.2879ZM21.3002 26.1404C21.4076 25.8207 21.3002 25.501 20.978 25.501C20.7632 25.501 20.4411 25.7141 20.3337 26.1404C20.2263 26.4601 20.441 26.7799 20.6558 26.7799C20.8706 26.6733 21.1928 26.5667 21.3002 26.1404Z" fill="#323E48"/>
<path d="M22.8037 25.2871C23.2332 25.2871 23.3406 25.6068 23.3406 25.9265V26.0331H22.1593C22.0519 26.3528 22.2667 26.6725 22.5889 26.6725C22.911 26.6725 23.1258 26.4594 23.1258 26.4594L23.2332 26.566C23.2332 26.566 22.911 26.7791 22.5889 26.7791C22.1593 26.7791 21.8371 26.4594 21.9445 26.0331C21.9445 25.6068 22.3741 25.2871 22.8037 25.2871ZM23.0185 25.9265C23.1259 25.6068 22.911 25.5003 22.6962 25.5003C22.4814 25.5003 22.1593 25.6068 22.0519 25.9265H23.0185Z" fill="#323E48"/>
<path fill-rule="evenodd" clip-rule="evenodd" d="M23.6629 25.6068C23.6629 25.5003 23.7703 25.6068 23.6629 25.6068L23.4481 25.5003V25.2871H23.6629C23.7703 25.2871 23.8776 25.2871 23.7702 25.5003V25.7134C23.985 25.5003 24.3072 25.2871 24.522 25.2871C24.8442 25.2871 24.9516 25.3937 24.9516 25.6068C25.059 25.5003 25.2738 25.2871 25.5959 25.2871C25.9181 25.2871 26.0255 25.5003 25.9181 25.82L25.8107 26.566V26.6725H25.9181V26.8857H25.7034C25.596 26.8857 25.4885 26.7791 25.5959 26.6725L25.8107 25.9265C25.9181 25.7134 25.8107 25.5003 25.5959 25.5003C25.3811 25.5003 25.1664 25.7134 25.059 25.9265C25.059 26.0331 24.9516 26.0331 24.9516 26.1397L24.8442 26.8857H24.6294L24.8442 26.0331C24.8442 25.82 24.9516 25.6068 24.6294 25.6068C24.4146 25.6068 24.1999 25.82 24.0925 26.0331C24.0925 26.1397 23.985 26.1397 23.985 26.2462L23.6629 26.8857H23.4481L23.6629 25.6068Z" fill="#323E48"/>
<path d="M27.2068 25.2871C27.6364 25.2871 27.7438 25.6068 27.7438 25.9265V26.0331H26.5625C26.4551 26.3528 26.6698 26.6725 26.992 26.6725C27.3142 26.6725 27.529 26.4594 27.529 26.4594L27.6364 26.566C27.6364 26.566 27.3142 26.7791 26.992 26.7791C26.5624 26.7791 26.2403 26.4594 26.3477 26.0331C26.3477 25.6068 26.7772 25.2871 27.2068 25.2871ZM27.4216 25.9265C27.529 25.6068 27.3142 25.5003 27.0994 25.5003C26.8846 25.5003 26.5624 25.6068 26.455 25.9265H27.4216Z" fill="#323E48"/>
<path fill-rule="evenodd" clip-rule="evenodd" d="M29.2474 25.9273L28.9252 24.9681C28.9252 24.8616 28.8177 24.8616 28.8177 24.8616V24.6484H28.9252C29.0326 24.6484 29.1399 24.6484 29.1399 24.8616L29.3547 25.3944C29.3547 25.501 29.4622 25.6076 29.4622 25.6076C29.4622 25.6076 29.5695 25.501 29.6769 25.3944L30.1065 24.9681C30.2139 24.8616 30.3213 24.755 30.4287 24.755H30.5361V24.9681C30.4645 24.9681 30.4287 25.0037 30.4287 25.0747L29.6769 26.0339L29.4622 26.8864H29.0325L29.2474 25.9273Z" fill="#323E48"/>
<path d="M31.0733 25.2868C31.5028 25.2868 31.825 25.6065 31.7176 26.0328C31.6102 26.459 31.1806 26.7788 30.751 26.7788C30.3215 26.7788 29.9993 26.459 30.1067 26.0328C30.2141 25.713 30.6437 25.2868 31.0733 25.2868ZM30.751 26.6722C31.0732 26.6722 31.3954 26.459 31.5028 26.0328C31.6102 25.713 31.3954 25.4999 31.0733 25.4999C30.7511 25.4999 30.4289 25.713 30.3215 26.0328C30.2141 26.459 30.4288 26.6722 30.751 26.6722ZM30.8585 24.7539H31.0733L30.9658 24.967H30.751L30.8585 24.7539ZM31.288 24.7539H31.5028V24.967H31.288V24.7539Z" fill="#323E48"/>
<path fill-rule="evenodd" clip-rule="evenodd" d="M32.1471 25.6068L31.9323 25.5003V25.2871H32.2544C32.3618 25.2871 32.4692 25.2871 32.3618 25.5003V25.7134C32.4692 25.6068 32.684 25.2871 33.0062 25.2871C33.3284 25.2871 33.4358 25.5003 33.3284 25.82L33.221 26.566C33.221 26.566 33.221 26.6725 33.3284 26.6725H33.4357V26.8857H33.221C33.1136 26.8857 33.0062 26.7791 33.1136 26.6725L33.221 25.9265C33.221 25.7134 33.3284 25.5003 33.0062 25.5003C32.7914 25.5003 32.4692 25.7134 32.3618 25.9265C32.2902 25.9976 32.2544 26.0686 32.2544 26.1397L32.1471 26.8857H31.9323L32.1471 25.6068Z" fill="#323E48"/>
<path fill-rule="evenodd" clip-rule="evenodd" d="M33.9727 25.5008H33.758V25.2876H33.9727L34.0801 24.8613H34.2949L34.1875 25.2876H34.6171V25.5008H34.1875L33.9727 26.2467C33.8653 26.5665 34.0801 26.673 34.1875 26.673H34.2949V26.8862H34.1875C33.9727 26.8862 33.6506 26.7796 33.758 26.3533L33.9727 25.5008Z" fill="#323E48"/>
<path d="M35.5835 25.2871C36.0131 25.2871 36.1205 25.6068 36.1205 25.9265V26.0331H34.9392C34.8318 26.3528 35.0466 26.6725 35.3688 26.6725C35.6909 26.6725 35.9057 26.4594 35.9057 26.4594L36.0131 26.566C36.0131 26.566 35.7983 26.7791 35.3688 26.7791C34.9392 26.7791 34.617 26.4594 34.7244 26.0331C34.7244 25.6068 35.1539 25.2871 35.5835 25.2871ZM35.9057 25.9265C36.0131 25.6068 35.7983 25.5003 35.5835 25.5003C35.3687 25.5003 35.0466 25.6068 34.9392 25.9265H35.9057Z" fill="#323E48"/>
<path fill-rule="evenodd" clip-rule="evenodd" d="M36.5501 25.6068L36.3353 25.5003V25.2871H36.5501C36.6575 25.2871 36.7649 25.2871 36.6575 25.5003V25.7134C36.8723 25.5003 37.0871 25.2871 37.3019 25.2871C37.6241 25.2871 37.7314 25.3937 37.7314 25.6068C37.8388 25.5003 38.1611 25.2871 38.3758 25.2871C38.698 25.2871 38.8054 25.5003 38.698 25.9265L38.5906 26.6725V26.7791H38.698V26.9922H38.4832C38.3758 26.9922 38.2684 26.8857 38.3758 26.7791L38.4832 26.0331C38.5906 25.82 38.4832 25.6068 38.2684 25.6068C38.0536 25.6068 37.8388 25.82 37.7314 26.0331C37.7314 26.1397 37.6241 26.1397 37.6241 26.2462L37.5167 26.9922H37.3019L37.5167 26.1397C37.5167 25.9265 37.6241 25.7134 37.3019 25.7134C37.0871 25.7134 36.8723 25.9265 36.7649 26.1397C36.7649 26.2107 36.7291 26.2818 36.6575 26.3528L36.5501 27.0988H36.3353L36.5501 25.6068Z" fill="#323E48"/>
<path d="M39.6646 25.6065C39.6646 25.6065 39.6645 25.4999 39.5572 25.4999H39.235L39.3424 25.2868H39.8793C40.2015 25.2868 40.3089 25.2868 40.2016 25.4999L39.6646 26.5656C39.6646 26.5656 39.6646 26.6722 39.772 26.6722H40.0941L39.9868 26.8853H39.4498C39.1276 26.8853 39.0202 26.7788 39.1276 26.6722L39.6646 25.6065ZM40.0941 24.7539H40.5237L40.4163 24.967H39.9868L40.0941 24.7539Z" fill="#323E48"/>
<path fill-rule="evenodd" clip-rule="evenodd" d="M58.6303 4.69727C57.7712 4.69727 56.8046 5.23012 56.3751 6.08269L52.294 15.3543L50.7906 6.08269C50.5758 5.23012 50.0388 4.69727 49.0722 4.69727H43.81L48.3205 20.15C48.4279 20.4697 48.4279 20.7894 48.3205 21.1092C48.1057 22.388 46.9244 23.4537 45.6357 23.4537H42.736C41.9843 23.4537 41.5547 23.88 41.2325 24.9457L40.5881 28.7823H45.743C48.4279 28.7823 51.5423 27.5034 53.6902 23.7734L64 4.69727H58.6303Z" fill="#323E48"/>
<path fill-rule="evenodd" clip-rule="evenodd" d="M7.94035 0.00878906C9.44386 0.00878906 10.1956 0.648214 9.98086 2.1402L9.55126 4.59133H13.0952L12.3435 8.96073H8.69212L7.72555 14.3958C7.40336 16.3141 9.22906 16.5273 10.4104 16.5273H10.9474L10.0882 21.3229C9.87344 21.3229 9.55126 21.4295 9.01429 21.4295C6.32944 21.4295 1.28194 20.6835 2.24848 15.1418L3.32242 8.96073H0.637573L1.38934 4.59133H3.96676L4.82596 0.00878906H7.94035Z" fill="#323E48"/>
<path fill-rule="evenodd" clip-rule="evenodd" d="M37.7851 4.80371L36.8186 9.91911C37.8925 10.452 38.7517 11.6242 38.7517 12.9031C38.7517 14.6082 37.4629 16.1002 35.7446 16.3134L34.8855 21.4287H35.4225C40.1478 21.4287 44.014 17.5922 44.014 12.9031C43.9066 9.17311 41.3291 5.86942 37.7851 4.80371Z" fill="#00ADBB"/>
<path fill-rule="evenodd" clip-rule="evenodd" d="M33.7042 15.994C32.6302 15.4612 31.7711 14.2889 31.7711 13.01C31.7711 11.3049 33.0598 9.81291 34.7781 9.59977L35.7447 4.48438H35.2077C30.4824 4.48438 26.6162 8.32092 26.6162 13.01C26.6162 16.8466 29.1937 20.0437 32.7377 21.1094L33.7042 15.994Z" fill="#00ADBB"/>
<path fill-rule="evenodd" clip-rule="evenodd" d="M15.1357 4.69752H18.1428C19.6463 4.69752 20.3981 5.33694 20.1833 6.82893L19.8611 8.64063C21.0424 6.40265 23.405 4.48438 25.9825 4.48438C26.3047 4.48438 26.6269 4.59095 26.6269 4.59095L25.6603 10.1326C25.6603 10.1326 25.2308 10.0261 24.479 10.0261C23.0829 10.0261 20.8276 10.4523 19.5389 12.9035C19.2167 13.5429 19.0019 14.2889 18.8945 15.1415L17.8206 21.3226H12.1287L15.1357 4.69752Z" fill="#323E48"/>
<path d="M64 22.0695C64 22.6024 63.7852 23.0287 63.463 23.3484C63.1408 23.6681 62.7113 23.8812 62.1743 23.8812C61.6373 23.8812 61.2077 23.6681 60.8855 23.3484C60.5634 23.0287 60.3486 22.6024 60.3486 22.0695C60.3486 21.5367 60.5634 21.1104 60.8855 20.7907C61.2077 20.471 61.6373 20.2578 62.1743 20.2578C62.7113 20.2578 63.1408 20.471 63.463 20.7907C63.7852 21.1104 64 21.5367 64 22.0695ZM63.6778 22.0695C63.6778 21.6432 63.5704 21.3235 63.2482 21.0038C62.926 20.6841 62.6039 20.5775 62.1743 20.5775C61.7447 20.5775 61.4225 20.6841 61.1003 21.0038C60.7782 21.3235 60.6708 21.6432 60.6708 22.0695C60.6708 22.4958 60.7782 22.8155 61.1003 23.1352C61.4225 23.4549 61.7447 23.5615 62.1743 23.5615C62.6039 23.5615 62.926 23.4549 63.2482 23.1352C63.5704 22.8155 63.6778 22.4958 63.6778 22.0695ZM62.9261 23.0287H62.6039L62.1743 22.1761H61.8521V23.0287H61.5299V21.1104H62.1743C62.3891 21.1104 62.4965 21.2169 62.6039 21.3235C62.7113 21.4301 62.8187 21.5367 62.8187 21.7498C62.8187 22.0695 62.7113 22.1761 62.3891 22.2827L62.9261 23.0287ZM62.6039 21.6432C62.6039 21.5367 62.6038 21.4301 62.4965 21.4301C62.3891 21.4301 62.2817 21.3235 62.1743 21.3235H61.8521V21.9629H62.1743C62.2817 21.9629 62.3891 21.9629 62.4965 21.8564C62.4965 21.8564 62.6039 21.7498 62.6039 21.6432Z" fill="#323E48"/>
</svg>
