<svg width="68" height="22" viewBox="0 0 68 22" fill="none" xmlns="http://www.w3.org/2000/svg">
<g id="visa">
<path id="Fill-1" fill-rule="evenodd" clip-rule="evenodd" d="M33.6538 0.438002L29.2507 21.0062H23.881L28.2841 0.438002H33.6538ZM56.3139 13.6528L59.1062 5.87311L60.7171 13.6528H56.3139ZM62.328 21.0062H67.2681L62.9724 0.438002H58.3544C57.2805 0.438002 56.4213 1.07743 56.0991 1.92999L47.9372 21.0062H53.6291L54.703 17.9156H61.5762L62.328 21.0062ZM48.2594 14.2922C48.2594 8.85709 40.6344 8.53738 40.7418 6.08625C40.7418 5.34026 41.4936 4.59426 42.9971 4.38112C43.7488 4.27455 45.8967 4.16798 48.2594 5.34026L49.2259 0.970856C47.9372 0.438002 46.3263 0.0117188 44.1784 0.0117188C38.8087 0.0117188 35.1573 2.78256 35.0499 6.83225C35.0499 9.81623 37.7348 11.4148 39.7753 12.4805C41.9231 13.4396 42.5675 14.1856 42.5675 15.0382C42.5675 16.4236 40.8492 17.063 39.3457 17.063C36.6608 17.063 35.0499 16.317 33.8686 15.7842L32.902 20.2602C34.1908 20.793 36.4461 21.3259 38.9161 21.3259C44.5006 21.3259 48.2594 18.555 48.2594 14.2922ZM25.9214 0.438002L17.2225 21.0062H11.5307L7.2349 4.59426C7.02012 3.52855 6.69792 3.20884 5.94616 2.78256C4.65744 2.03656 2.50957 1.39714 0.683868 1.07743L0.791269 0.438002H9.91975C11.1011 0.438002 12.175 1.184 12.3898 2.56942L14.6451 14.5053L20.2296 0.438002H25.9214Z" fill="url(#paint0_linear_104_8286)"/>
</g>
<defs>
<linearGradient id="paint0_linear_104_8286" x1="0.769784" y1="10.7008" x2="67.354" y2="10.7008" gradientUnits="userSpaceOnUse">
<stop stop-color="#1D1C45"/>
<stop offset="1" stop-color="#174489"/>
</linearGradient>
</defs>
</svg>
