<svg width="69" height="30" viewBox="0 0 69 30" fill="none" xmlns="http://www.w3.org/2000/svg">
<path d="M26.0409 0.438002L17.2346 21.3259H11.4353L7.03222 4.59426C6.81743 3.63512 6.60263 3.20884 5.74348 2.78256C4.45475 2.03656 2.30687 1.39714 0.373779 0.970856L0.48118 0.331431H9.82443C11.0058 0.331431 12.0797 1.07743 12.2945 2.46285L14.5498 14.6119L20.2417 0.331431H26.0409V0.438002ZM33.8807 0.438002L29.3701 21.3259H23.893L28.4036 0.438002H33.8807ZM48.701 14.5053C48.701 8.96366 40.9687 8.64395 41.0761 6.19282C41.0761 5.44683 41.8278 4.59426 43.4388 4.48769C44.1905 4.38112 46.3384 4.27455 48.8084 5.44683L49.775 0.970856C48.3789 0.438002 46.6606 0.0117188 44.6201 0.0117188C39.2504 0.0117188 35.3842 2.88913 35.3842 6.93882C35.3842 9.9228 38.0691 11.6279 40.2169 12.5871C42.3648 13.6528 43.0092 14.2922 43.0092 15.1448C43.0092 16.5302 41.2909 17.1696 39.7874 17.1696C36.9951 17.1696 35.4916 16.4236 34.2029 15.8908L33.2363 20.4733C34.5251 21.0062 36.8877 21.539 39.3578 21.539C44.9422 21.6456 48.701 18.8747 48.701 14.5053ZM62.9844 21.3259H68.032L63.6288 0.438002H59.0109C57.9369 0.438002 57.0778 1.07743 56.6482 1.92999L48.3789 21.3259H54.0707L55.2521 18.2353H62.2327L62.9844 21.3259ZM56.863 13.8659L59.7626 5.97968L61.3735 13.8659H56.863ZM40.8613 27.0807H38.606V29.1055H41.1835V29.745H37.9617V24.0967H41.0761V24.7361H38.7134V26.5478H40.9687V27.0807H40.8613ZM42.2574 23.777H43.0092V29.745H42.2574V23.777ZM44.9423 27.8267C44.9423 28.7858 45.5866 29.2121 46.3384 29.2121C46.8753 29.2121 47.1975 29.1055 47.5197 28.999L47.6271 29.5318C47.4123 29.6384 46.8754 29.745 46.231 29.745C44.9423 29.745 44.1905 28.8924 44.1905 27.7201C44.1905 26.5478 44.9423 25.4821 46.1236 25.4821C47.5197 25.4821 47.8419 26.6544 47.8419 27.4004V27.7201H44.9423V27.8267ZM47.0901 27.2938C47.0901 26.8675 46.8754 26.1216 46.0162 26.1216C45.2644 26.1216 44.9423 26.761 44.8349 27.2938H47.0901ZM51.9229 29.6384C51.7081 29.745 51.2785 29.8515 50.7415 29.8515C49.4528 29.8515 48.701 28.999 48.701 27.7201C48.701 26.4413 49.5602 25.5887 50.9563 25.5887C51.3859 25.5887 51.8155 25.6953 52.0303 25.8018L51.8155 26.3347C51.6007 26.2281 51.3859 26.1216 50.9563 26.1216C49.9898 26.1216 49.4528 26.8675 49.4528 27.6135C49.4528 28.5727 50.0972 29.1055 50.8489 29.1055C51.2785 29.1055 51.6007 28.999 51.8155 28.8924L51.9229 29.6384ZM53.9633 24.7361V25.6953H55.0373V26.2281H53.9633V28.4661C53.9633 28.999 54.0707 29.2121 54.5003 29.2121H54.9299V29.745C54.8225 29.745 54.6077 29.8515 54.2855 29.8515C53.9634 29.8515 53.6412 29.745 53.4264 29.5318C53.2116 29.3187 53.1042 28.8924 53.1042 28.4661V26.2281H52.4598V25.6953H53.1042V24.9493L53.9633 24.7361ZM56.1112 26.9741V25.6953H56.7556V26.5478C56.9704 26.015 57.4 25.6953 57.9369 25.6953H58.1517V26.4413H57.9369C57.4 26.4413 57.0778 26.8675 56.9704 27.4004V29.8515H56.2186V26.9741H56.1112ZM62.7697 27.7201C62.7697 29.2121 61.6957 29.8515 60.7292 29.8515C59.6552 29.8515 58.7961 28.999 58.7961 27.7201C58.7961 26.3347 59.6552 25.5887 60.8366 25.5887C62.0179 25.5887 62.7697 26.4413 62.7697 27.7201ZM59.5478 27.7201C59.5478 28.5727 60.0848 29.3187 60.8366 29.3187C61.5883 29.3187 62.1253 28.6793 62.1253 27.7201C62.1253 27.0807 61.8031 26.1216 60.944 26.1216C59.87 26.1216 59.5478 26.9741 59.5478 27.7201ZM63.951 26.761V25.6953H64.5953V26.3347C64.8101 25.9084 65.2397 25.5887 65.9915 25.5887C66.5285 25.5887 67.495 25.9084 67.495 27.2938V29.745H66.7432V27.4004C66.7432 26.761 66.5284 26.2281 65.7767 26.2281C65.2397 26.2281 64.9175 26.5478 64.8101 26.9741V29.745H64.0584V26.761H63.951Z" fill="#1A1F71"/>
</svg>
