<svg width="63" height="63" viewBox="0 0 63 63" fill="none" xmlns="http://www.w3.org/2000/svg">
<g id="huge-icon/education/outline/book 03">
<path id="Vector (Stroke)" fill-rule="evenodd" clip-rule="evenodd" d="M8.53125 13.125C8.53125 7.68845 12.9384 3.28125 18.375 3.28125H44.625C50.0616 3.28125 54.4688 7.68845 54.4688 13.125V42C54.4688 47.4366 50.0616 51.8438 44.625 51.8438H43.9688V57.75C43.9688 58.5463 43.4891 59.2642 42.7534 59.5689C42.0177 59.8736 41.1709 59.7052 40.6079 59.1421L36.75 55.2842L32.8921 59.1421C32.3291 59.7052 31.4823 59.8736 30.7466 59.5689C30.0109 59.2642 29.5312 58.5463 29.5312 57.75V51.8438H18.375C12.9384 51.8438 8.53125 47.4366 8.53125 42V13.125ZM12.4688 42C12.4688 45.2619 15.1131 47.9062 18.375 47.9062H29.5312V42C29.5312 40.9127 30.4127 40.0312 31.5 40.0312H42C43.0873 40.0312 43.9688 40.9127 43.9688 42V47.9062H44.625C47.8869 47.9062 50.5312 45.2619 50.5312 42V36.0938H18.375C15.1131 36.0938 12.4688 38.7381 12.4688 42ZM50.5312 32.1562H18.375C16.159 32.1562 14.114 32.8885 12.4688 34.1243V13.125C12.4688 9.86307 15.1131 7.21875 18.375 7.21875H44.625C47.8869 7.21875 50.5312 9.86307 50.5312 13.125V32.1562ZM19.0312 15.75C19.0312 14.6627 19.9127 13.7812 21 13.7812H42C43.0873 13.7812 43.9688 14.6627 43.9688 15.75C43.9688 16.8373 43.0873 17.7188 42 17.7188H21C19.9127 17.7188 19.0312 16.8373 19.0312 15.75ZM19.0312 24.9375C19.0312 23.8502 19.9127 22.9688 21 22.9688H31.5C32.5873 22.9688 33.4688 23.8502 33.4688 24.9375C33.4688 26.0248 32.5873 26.9062 31.5 26.9062H21C19.9127 26.9062 19.0312 26.0248 19.0312 24.9375ZM33.4688 43.9688V52.997L35.3579 51.1079C36.1267 50.339 37.3733 50.339 38.1421 51.1079L40.0312 52.997V43.9688H33.4688Z" fill="black"/>
</g>
</svg>
