<svg width="43" height="43" viewBox="0 0 43 43" fill="none" xmlns="http://www.w3.org/2000/svg">
<g id="huge-icon/education/outline/book-favourite">
<path id="Vector (Stroke)" fill-rule="evenodd" clip-rule="evenodd" d="M2.23958 8.84226C2.23958 6.1442 4.41921 3.73364 7.30738 4.06C11.3573 4.51764 16.9661 5.75876 21.0471 8.61839C21.3155 8.80644 21.6845 8.80644 21.9529 8.61839C26.0338 5.75876 31.6427 4.51764 35.6926 4.06C38.5808 3.73364 40.7604 6.1442 40.7604 8.84226V25.0834C40.7604 25.8255 40.1588 26.4271 39.4167 26.4271C38.6745 26.4271 38.0729 25.8255 38.0729 25.0834V8.84226C38.0729 7.487 37.0404 6.61231 35.9944 6.73051C32.0951 7.17112 27.0241 8.3465 23.4951 10.8193C23.2888 10.9639 23.0702 11.0835 22.8437 11.1782V37.6251C22.8437 38.3672 22.2421 38.9688 21.5 38.9688C20.8044 38.9688 20.1041 38.7612 19.5048 38.3412C15.9759 35.8684 10.9049 34.693 7.00562 34.2524C4.41481 33.9596 2.23958 31.79 2.23958 29.025V8.84226ZM20.1562 11.1782C19.9297 11.0835 19.7112 10.9639 19.5048 10.8193C15.9759 8.3465 10.9049 7.17112 7.00562 6.73051C5.95963 6.61231 4.92708 7.487 4.92708 8.84226V29.025C4.92708 30.3133 5.96403 31.4301 7.30738 31.5819C11.0699 32.007 16.1779 33.1084 20.1562 35.5556V11.1782ZM7.63041 14.584C7.74399 13.8506 8.43059 13.3481 9.16398 13.4617C11.4981 13.8232 14.1268 14.4274 16.6097 15.3875C17.3018 15.6552 17.646 16.4333 17.3783 17.1255C17.1106 17.8177 16.3325 18.1618 15.6403 17.8941C13.3853 17.0221 10.9542 16.4585 8.75267 16.1175C8.01929 16.004 7.51683 15.3174 7.63041 14.584ZM7.63041 21.7506C7.74399 21.0172 8.43059 20.5148 9.16398 20.6284C10.346 20.8114 11.6001 21.0562 12.8704 21.3767C13.59 21.5582 14.0261 22.2888 13.8446 23.0083C13.663 23.7279 12.9325 24.1641 12.2129 23.9825C11.0333 23.6849 9.86215 23.456 8.75267 23.2842C8.01929 23.1706 7.51683 22.484 7.63041 21.7506ZM30.0717 31.1571C29.5033 30.5886 28.5815 30.5886 28.013 31.1571C27.4445 31.7256 27.4445 32.6473 28.013 33.2158L30.7844 35.9871C31.1342 36.337 31.7014 36.337 32.0513 35.9871L34.8226 33.2158C35.3911 32.6473 35.3911 31.7256 34.8226 31.1571C34.2541 30.5886 33.3324 30.5886 32.7639 31.1571L32.368 31.553C32.116 31.805 31.7742 31.9466 31.4178 31.9466C31.0614 31.9466 30.7197 31.805 30.4677 31.553L30.0717 31.1571ZM31.4178 28.7909C29.8016 27.6574 27.5567 27.8127 26.1127 29.2567C24.4947 30.8748 24.4947 33.4981 26.1127 35.1161L28.884 37.8875C30.2834 39.2869 32.5522 39.2869 33.9516 37.8875L36.723 35.1161C38.341 33.4981 38.341 30.8748 36.723 29.2567C35.2789 27.8127 33.0341 27.6574 31.4178 28.7909Z" fill="black" fill-opacity="0.31"/>
</g>
</svg>
