<svg width="43" height="43" viewBox="0 0 43 43" fill="none" xmlns="http://www.w3.org/2000/svg">
<g id="Huge-icon/interface/outline/clock-circle">
<path id="Vector (Stroke)" fill-rule="evenodd" clip-rule="evenodd" d="M21.5002 4.92676C12.3472 4.92676 4.92725 12.3467 4.92725 21.4997C4.92725 30.6526 12.3472 38.0726 21.5002 38.0726C30.6531 38.0726 38.0731 30.6526 38.0731 21.4997C38.0731 12.3467 30.6531 4.92676 21.5002 4.92676ZM2.23975 21.4997C2.23975 10.8624 10.8629 2.23926 21.5002 2.23926C32.1374 2.23926 40.7606 10.8624 40.7606 21.4997C40.7606 32.1369 32.1374 40.7601 21.5002 40.7601C10.8629 40.7601 2.23975 32.1369 2.23975 21.4997ZM21.5002 11.1976C22.2423 11.1976 22.8439 11.7992 22.8439 12.5413V20.5312L27.3001 22.0165C28.0041 22.2512 28.3846 23.0122 28.15 23.7163C27.9153 24.4203 27.1543 24.8008 26.4502 24.5661L21.0752 22.7745C20.5265 22.5916 20.1564 22.0781 20.1564 21.4997V12.5413C20.1564 11.7992 20.758 11.1976 21.5002 11.1976Z" fill="#BBBBBB"/>
</g>
</svg>
