<svg width="44" height="43" viewBox="0 0 44 43" fill="none" xmlns="http://www.w3.org/2000/svg">
<g id="huge-icon/education/outline/diploma">
<path id="Vector (Stroke)" fill-rule="evenodd" clip-rule="evenodd" d="M14.6667 4.92676C11.376 4.92676 8.70834 7.53377 8.70834 10.7497V25.083C8.70834 27.2366 9.90397 29.1189 11.6885 30.1277C12.3458 30.4993 12.5705 31.3214 12.1902 31.9638C11.81 32.6061 10.9688 32.8257 10.3115 32.4541C7.71217 30.9846 5.95834 28.2348 5.95834 25.083V10.7497C5.95834 6.0495 9.8572 2.23926 14.6667 2.23926H29.3333C34.1428 2.23926 38.0417 6.0495 38.0417 10.7497V25.083C38.0417 28.2348 36.2878 30.9846 33.6885 32.4541C33.0312 32.8257 32.1901 32.6061 31.8098 31.9638C31.4296 31.3214 31.6542 30.4993 32.3115 30.1277C34.0961 29.1189 35.2917 27.2366 35.2917 25.083V10.7497C35.2917 7.53377 32.624 4.92676 29.3333 4.92676H14.6667ZM13.2917 10.7497C13.2917 10.0075 13.9073 9.40592 14.6667 9.40592H29.3333C30.0927 9.40592 30.7083 10.0075 30.7083 10.7497C30.7083 11.4918 30.0927 12.0934 29.3333 12.0934H14.6667C13.9073 12.0934 13.2917 11.4918 13.2917 10.7497ZM13.2917 17.9163C13.2917 17.1742 13.9073 16.5726 14.6667 16.5726H22C22.7594 16.5726 23.375 17.1742 23.375 17.9163C23.375 18.6585 22.7594 19.2601 22 19.2601H14.6667C13.9073 19.2601 13.2917 18.6585 13.2917 17.9163ZM22 24.6351C19.7218 24.6351 17.875 26.4399 17.875 28.6663C17.875 30.8927 19.7218 32.6976 22 32.6976C24.2782 32.6976 26.125 30.8927 26.125 28.6663C26.125 26.4399 24.2782 24.6351 22 24.6351ZM15.125 28.6663C15.125 24.9557 18.2031 21.9476 22 21.9476C25.797 21.9476 28.875 24.9557 28.875 28.6663C28.875 29.888 28.5414 31.0334 27.9583 32.0205V39.4163C27.9583 39.8622 27.732 40.2791 27.3542 40.5291C26.9764 40.779 26.4963 40.8296 26.0727 40.664L22 39.0719L17.9273 40.664C17.5037 40.8296 17.0236 40.779 16.6458 40.5291C16.268 40.2791 16.0417 39.8622 16.0417 39.4163V32.0205C15.4586 31.0334 15.125 29.888 15.125 28.6663ZM18.7917 34.6102V37.4316L21.4893 36.377C21.8172 36.2489 22.1829 36.2489 22.5107 36.377L25.2083 37.4316V34.6102C24.2506 35.1049 23.1588 35.3851 22 35.3851C20.8413 35.3851 19.7495 35.1049 18.7917 34.6102Z" fill="black" fill-opacity="0.31"/>
</g>
</svg>
