<svg width="44" height="43" viewBox="0 0 44 43" fill="none" xmlns="http://www.w3.org/2000/svg">
<g id="Huge-icon/multimedia and audio/outline/playlist 01">
<path id="Vector (Stroke)" fill-rule="evenodd" clip-rule="evenodd" d="M4.125 10.7497C4.125 6.0495 8.02385 2.23926 12.8333 2.23926H31.1667C35.9761 2.23926 39.875 6.0495 39.875 10.7497V25.083C39.875 29.7832 35.9761 33.5934 31.1667 33.5934H9.16667C7.90101 33.5934 6.875 34.5961 6.875 35.833C6.875 37.0699 7.90101 38.0726 9.16667 38.0726H38.5C39.2594 38.0726 39.875 38.6742 39.875 39.4163C39.875 40.1585 39.2594 40.7601 38.5 40.7601H9.16667C6.38223 40.7601 4.125 38.5542 4.125 35.833V10.7497ZM6.875 31.4432C7.56256 31.0997 8.34146 30.9059 9.16667 30.9059H31.1667C34.4574 30.9059 37.125 28.2989 37.125 25.083V10.7497C37.125 7.53377 34.4574 4.92676 31.1667 4.92676H12.8333C9.54264 4.92676 6.875 7.53377 6.875 10.7497V31.4432Z" fill="black" fill-opacity="0.31"/>
<path id="Vector (Stroke)_2" fill-rule="evenodd" clip-rule="evenodd" d="M21.0948 11.4933C18.352 10.1531 15.125 12.1022 15.125 15.099V20.7354C15.125 23.7321 18.352 25.6812 21.0948 24.341L26.8622 21.5228C29.9026 20.0372 29.9026 15.7971 26.8622 14.3115L21.0948 11.4933ZM19.8649 13.8971C18.9507 13.4503 17.875 14.1 17.875 15.099V20.7354C17.875 21.7343 18.9507 22.384 19.8649 21.9372L25.6324 19.119C26.6458 18.6238 26.6458 17.2105 25.6324 16.7153L19.8649 13.8971Z" fill="black" fill-opacity="0.31"/>
</g>
</svg>
