<svg width="44" height="43" viewBox="0 0 44 43" fill="none" xmlns="http://www.w3.org/2000/svg">
<g id="Huge-icon/multimedia and audio/outline/camera video">
<path id="Vector (Stroke)" fill-rule="evenodd" clip-rule="evenodd" d="M2.29169 14.3337C2.29169 9.63349 6.19054 5.82324 11 5.82324H23.8334C28.3132 5.82324 32.003 9.12912 32.4877 13.3808L32.9886 12.8586C36.1145 9.60008 41.7084 11.7619 41.7084 16.2285V26.7722C41.7084 31.2388 36.1145 33.4006 32.9886 30.142L32.4877 29.6199C32.003 33.8715 28.3132 37.1774 23.8334 37.1774H11C6.19054 37.1774 2.29169 33.3672 2.29169 28.667V14.3337ZM29.7917 14.3337C29.7917 11.1178 27.1241 8.51074 23.8334 8.51074H11C7.70932 8.51074 5.04169 11.1178 5.04169 14.3337V28.667C5.04169 31.8829 7.70932 34.4899 11 34.4899H23.8334C27.1241 34.4899 29.7917 31.8829 29.7917 28.667V14.3337ZM32.5417 25.7467L34.9948 28.3039C36.4157 29.7851 38.9584 28.8025 38.9584 26.7722V16.2285C38.9584 14.1982 36.4157 13.2156 34.9948 14.6967L32.5417 17.2539V25.7467ZM20.1667 15.6774C18.901 15.6774 17.875 16.6801 17.875 17.917C17.875 19.1539 18.901 20.1566 20.1667 20.1566C21.4323 20.1566 22.4584 19.1539 22.4584 17.917C22.4584 16.6801 21.4323 15.6774 20.1667 15.6774ZM15.125 17.917C15.125 15.1958 17.3823 12.9899 20.1667 12.9899C22.9511 12.9899 25.2084 15.1958 25.2084 17.917C25.2084 20.6381 22.9511 22.8441 20.1667 22.8441C17.3823 22.8441 15.125 20.6381 15.125 17.917Z" fill="black" fill-opacity="0.31"/>
</g>
</svg>
